Recursive Sans-Casual Bold.ufo
<glyph name="dollar" format="2">
  <advance width="600.0"/>
  <unicode hex="0024"/>
  <outline>
    <contour>
      <point x="300.0" y="-18.79245283018868" type="curve" smooth="yes"/>
      <point x="466.9622641509434" y="-18.79245283018868"/>
      <point x="554.566037735849" y="68.58490566037736"/>
      <point x="554.566037735849" y="179.28301886792454" type="curve" smooth="yes"/>
      <point x="554.566037735849" y="193.62264150943395" type="line" smooth="yes"/>
      <point x="554.566037735849" y="265.62264150943395"/>
      <point x="517.3018867924528" y="326.8679245283019"/>
      <point x="389.2264150943396" y="373.50943396226415" type="curve" smooth="yes"/>
      <point x="296.58490566037733" y="407.05660377358487" type="line" smooth="yes"/>
      <point x="224.49056603773585" y="433.62264150943395"/>
      <point x="199.43396226415095" y="456.28301886792457"/>
      <point x="199.43396226415095" y="492.66037735849056" type="curve" smooth="yes"/>
      <point x="199.43396226415095" y="496.81132075471703" type="line" smooth="yes"/>
      <point x="199.43396226415095" y="555.6415094339624"/>
      <point x="295.60377358490564" y="585.0943396226414"/>
      <point x="377.1509433962264" y="585.0943396226414" type="curve" smooth="yes"/>
      <point x="439.0566037735849" y="585.0943396226414"/>
      <point x="476.7547169811321" y="572.6415094339624"/>
      <point x="509.5094339622641" y="547.0943396226415" type="curve"/>
      <point x="515.5094339622641" y="547.0943396226415" type="line"/>
      <point x="527.6981132075472" y="571.9245283018868"/>
      <point x="533.7924528301887" y="597.4528301886792"/>
      <point x="533.7924528301887" y="618.4905660377359" type="curve" smooth="yes"/>
      <point x="533.7924528301887" y="643.0754716981132"/>
      <point x="531.7924528301887" y="664.2641509433963"/>
      <point x="511.0566037735849" y="685.0" type="curve" smooth="yes"/>
      <point x="490.6603773584905" y="705.5471698113207"/>
      <point x="439.11320754716985" y="720.0"/>
      <point x="368.66037735849056" y="720.0" type="curve" smooth="yes"/>
      <point x="202.7169811320755" y="720.0"/>
      <point x="73.01886792452831" y="622.5849056603773"/>
      <point x="73.01886792452831" y="497.9056603773585" type="curve" smooth="yes"/>
      <point x="73.01886792452831" y="485.35849056603774" type="line" smooth="yes"/>
      <point x="73.01886792452831" y="420.54716981132077"/>
      <point x="101.88679245283019" y="352.8679245283019"/>
      <point x="254.86792452830187" y="296.07547169811323" type="curve" smooth="yes"/>
      <point x="345.96226415094344" y="262.37735849056605" type="line" smooth="yes"/>
      <point x="404.39622641509436" y="241.26415094339626"/>
      <point x="435.94339622641513" y="211.30188679245285"/>
      <point x="436.54716981132077" y="171.37735849056602" type="curve" smooth="yes"/>
      <point x="436.54716981132077" y="165.9245283018868" type="line" smooth="yes"/>
      <point x="406.6603773584906" y="135.43396226415095"/>
      <point x="356.79245283018867" y="116.1132075471698"/>
      <point x="300.0" y="116.1132075471698" type="curve" smooth="yes"/>
      <point x="195.45283018867923" y="116.1132075471698"/>
      <point x="122.26415094339623" y="146.81132075471695"/>
      <point x="66.9245283018868" y="204.71698113207543" type="curve"/>
      <point x="60.92452830188681" y="204.71698113207543" type="line"/>
      <point x="56.924528301886795" y="190.01886792452828"/>
      <point x="54.07547169811321" y="170.52830188679243"/>
      <point x="54.07547169811321" y="146.49056603773585" type="curve" smooth="yes"/>
      <point x="54.07547169811321" y="95.67924528301887"/>
      <point x="67.9622641509434" y="58.35849056603773"/>
      <point x="87.75471698113208" y="38.56603773584906" type="curve" smooth="yes"/>
      <point x="121.41509433962264" y="4.905660377358491"/>
      <point x="205.45283018867923" y="-18.79245283018868"/>
    </contour>
    <contour>
      <point x="361.47169811320754" y="434.8679245283019" type="curve"/>
      <point x="386.4528301886793" y="540.8490566037735"/>
      <point x="411.7924528301887" y="663.5283018867924"/>
      <point x="437.377358490566" y="777.5094339622642" type="curve" smooth="yes"/>
      <point x="453.1132075471698" y="845.377358490566"/>
      <point x="425.4339622641509" y="885.0"/>
      <point x="357.2264150943396" y="885.0" type="curve" smooth="yes"/>
      <point x="341.28301886792457" y="885.0"/>
      <point x="319.39622641509436" y="881.3018867924528"/>
      <point x="304.05660377358487" y="875.9056603773585" type="curve"/>
      <point x="314.3018867924528" y="847.6603773584906"/>
      <point x="321.5471698113207" y="820.566037735849"/>
      <point x="319.5471698113207" y="777.867924528302" type="curve" smooth="yes"/>
      <point x="315.2452830188679" y="679.0943396226415"/>
      <point x="311.49056603773585" y="569.3584905660377"/>
      <point x="307.64150943396226" y="480.6981132075472" type="curve" smooth="yes"/>
      <point x="307.49056603773585" y="466.9433962264151"/>
      <point x="312.8490566037736" y="456.0943396226415"/>
      <point x="322.60377358490564" y="448.45283018867923" type="curve" smooth="yes"/>
      <point x="331.5471698113207" y="439.9622641509434"/>
      <point x="345.7358490566038" y="434.8679245283019"/>
    </contour>
    <contour>
      <point x="270.7169811320755" y="237.0188679245283" type="curve"/>
      <point x="245.98113207547172" y="128.79245283018867"/>
      <point x="220.33962264150946" y="10.45283018867923"/>
      <point x="196.50943396226415" y="-87.50943396226417" type="curve" smooth="yes"/>
      <point x="179.77358490566039" y="-155.37735849056605"/>
      <point x="208.45283018867926" y="-195.0"/>
      <point x="276.66037735849056" y="-195.0" type="curve" smooth="yes"/>
      <point x="293.45283018867923" y="-195.0"/>
      <point x="314.49056603773585" y="-191.30188679245282"/>
      <point x="329.8301886792453" y="-185.9056603773585" type="curve"/>
      <point x="319.5849056603774" y="-157.66037735849056"/>
      <point x="313.188679245283" y="-130.56603773584905"/>
      <point x="314.33962264150944" y="-87.8679245283019" type="curve" smooth="yes"/>
      <point x="317.7924528301887" y="5.150943396226417"/>
      <point x="321.6981132075472" y="108.58490566037737"/>
      <point x="324.54716981132077" y="191.18867924528303" type="curve" smooth="yes"/>
      <point x="324.6981132075472" y="204.9433962264151"/>
      <point x="319.49056603773585" y="215.7924528301887"/>
      <point x="309.433962264151" y="223.43396226415098" type="curve" smooth="yes"/>
      <point x="299.64150943396226" y="232.77358490566039"/>
      <point x="286.45283018867923" y="237.0188679245283"/>
    </contour>
  </outline>
</glyph>
<glyph name="parenleft" format="2">
  <advance width="400.0"/>
  <unicode hex="0028"/>
  <outline>
    <contour>
      <point x="221.86792452830193" y="727.2830188679245" type="curve" smooth="yes"/>
      <point x="124.24528301886792" y="630.5660377358491"/>
      <point x="70.13207547169812" y="472.1509433962264"/>
      <point x="70.13207547169812" y="302.6981132075472" type="curve" smooth="yes"/>
      <point x="70.13207547169812" y="294.45283018867923" type="line" smooth="yes"/>
      <point x="70.13207547169812" y="125.0"/>
      <point x="125.24528301886795" y="-35.320754716981135"/>
      <point x="222.01886792452834" y="-129.98113207547172" type="curve" smooth="yes"/>
      <point x="251.69811320754718" y="-159.35849056603774"/>
      <point x="278.6792452830189" y="-172.8490566037736"/>
      <point x="311.50943396226415" y="-172.8490566037736" type="curve" smooth="yes"/>
      <point x="351.8301886792453" y="-172.8490566037736"/>
      <point x="368.3207547169811" y="-158.811320754717"/>
      <point x="388.50943396226415" y="-139.77358490566039" type="curve"/>
      <point x="388.50943396226415" y="-134.0754716981132" type="line"/>
      <point x="265.0943396226415" y="-21.22641509433963"/>
      <point x="206.58490566037733" y="127.94339622641509"/>
      <point x="206.58490566037733" y="294.45283018867923" type="curve" smooth="yes"/>
      <point x="206.58490566037733" y="302.6981132075472" type="line" smooth="yes"/>
      <point x="206.58490566037733" y="468.20754716981133"/>
      <point x="263.24528301886795" y="618.2264150943396"/>
      <point x="388.35849056603774" y="731.6792452830189" type="curve"/>
      <point x="388.35849056603774" y="737.3773584905659" type="line"/>
      <point x="368.1698113207547" y="755.9622641509434"/>
      <point x="351.52830188679246" y="770.0"/>
      <point x="311.35849056603774" y="770.0" type="curve" smooth="yes"/>
      <point x="278.6792452830189" y="770.0"/>
      <point x="251.39622641509436" y="756.811320754717"/>
    </contour>
  </outline>
</glyph>
<glyph name="comma" format="2">
  <advance width="350.0"/>
  <unicode hex="002C"/>
  <outline>
    <contour>
      <point x="99.50943396226415" y="-206.9811320754717" type="curve" smooth="yes"/>
      <point x="120.30188679245283" y="-206.9811320754717"/>
      <point x="132.1509433962264" y="-201.83018867924528"/>
      <point x="142.8490566037736" y="-189.37735849056605" type="curve" smooth="yes"/>
      <point x="197.67924528301887" y="-124.1320754716981"/>
      <point x="246.81132075471695" y="7.15094339622641"/>
      <point x="246.81132075471697" y="99.15094339622641" type="curve" smooth="yes"/>
      <point x="246.81132075471697" y="158.01886792452828"/>
      <point x="215.58490566037736" y="180.45283018867923"/>
      <point x="162.77358490566039" y="180.45283018867923" type="curve" smooth="yes"/>
      <point x="139.58490566037736" y="180.45283018867923"/>
      <point x="123.33962264150945" y="178.45283018867923"/>
      <point x="96.9056603773585" y="172.45283018867923" type="curve"/>
      <point x="96.90566037735852" y="26.77358490566037"/>
      <point x="73.20754716981133" y="-82.26415094339623"/>
      <point x="26.50943396226416" y="-171.66037735849056" type="curve"/>
      <point x="47.39622641509435" y="-194.79245283018867"/>
      <point x="71.67924528301887" y="-206.9811320754717"/>
    </contour>
  </outline>
</glyph>
<glyph name="hyphen" format="2">
  <advance width="600.0"/>
  <unicode hex="002D"/>
  <outline>
    <contour>
      <point x="101.50943396226415" y="366.6037735849057" type="line"/>
      <point x="101.50943396226415" y="361.0566037735849"/>
      <point x="101.50943396226415" y="355.3584905660377"/>
      <point x="101.50943396226415" y="348.9622641509434" type="curve" smooth="yes"/>
      <point x="101.50943396226415" y="247.0943396226415"/>
      <point x="113.60377358490565" y="231.69811320754718"/>
      <point x="195.83018867924528" y="231.69811320754718" type="curve"/>
      <point x="502.73584905660374" y="231.69811320754718" type="line"/>
      <point x="506.1320754716981" y="249.9811320754717"/>
      <point x="508.6792452830188" y="270.11320754716985"/>
      <point x="508.6792452830188" y="286.6981132075472" type="curve" smooth="yes"/>
      <point x="508.6792452830188" y="348.66037735849056"/>
      <point x="494.03773584905656" y="366.6037735849057"/>
      <point x="443.2264150943396" y="366.6037735849057" type="curve"/>
    </contour>
  </outline>
</glyph>
<glyph name="period" format="2">
  <advance width="350.0"/>
  <unicode hex="002E"/>
  <outline>
    <contour>
      <point x="256.90566037735846" y="0.6037735849056609" type="curve"/>
      <point x="256.90566037735846" y="101.49056603773585" type="line" smooth="yes"/>
      <point x="256.90566037735846" y="171.1509433962264"/>
      <point x="225.67924528301884" y="189.54716981132074"/>
      <point x="173.90566037735846" y="189.54716981132074" type="curve" smooth="yes"/>
      <point x="142.47169811320754" y="189.54716981132074"/>
      <point x="116.58490566037736" y="183.0"/>
      <point x="93.09433962264153" y="172.75471698113208" type="curve"/>
      <point x="93.09433962264153" y="86.96226415094338" type="line" smooth="yes"/>
      <point x="93.09433962264153" y="4.905660377358491"/>
      <point x="128.0188679245283" y="-10.094339622641508"/>
      <point x="193.13207547169813" y="-10.094339622641508" type="curve" smooth="yes"/>
      <point x="217.47169811320754" y="-10.094339622641508"/>
      <point x="236.41509433962264" y="-7.094339622641509"/>
    </contour>
  </outline>
</glyph>
<glyph name="G" format="2">
  <advance width="650.0"/>
  <unicode hex="0047"/>
  <anchor x="332.7547169811321" y="711.0" name="top"/>
  <anchor x="332.7547169811321" y="-1.0" name="bottom"/>
  <outline>
    <contour>
      <point x="354.6037735849057" y="346.6981132075472" type="line"/>
      <point x="352.6037735849057" y="341.1509433962264"/>
      <point x="351.6037735849057" y="330.0566037735849"/>
      <point x="351.6037735849057" y="321.5094339622641" type="curve" smooth="yes"/>
      <point x="351.6037735849057" y="258.35849056603774"/>
      <point x="387.07547169811323" y="229.62264150943395"/>
      <point x="487.8301886792453" y="229.62264150943395" type="curve"/>
      <point x="612.7358490566038" y="229.62264150943395" type="line"/>
      <point x="612.7358490566038" y="238.77358490566039" type="line" smooth="yes"/>
      <point x="612.7358490566038" y="320.1132075471698"/>
      <point x="597.9433962264151" y="346.6981132075472"/>
      <point x="551.5283018867924" y="346.6981132075472" type="curve" smooth="yes"/>
    </contour>
    <contour>
      <point x="377.9056603773585" y="720.0" type="curve"/>
      <point x="188.0188679245283" y="720.0"/>
      <point x="53.77358490566038" y="532.9056603773585"/>
      <point x="53.77358490566038" y="288.8679245283019" type="curve"/>
      <point x="53.77358490566038" y="269.3018867924528" type="line"/>
      <point x="53.77358490566038" y="95.79245283018868"/>
      <point x="159.1132075471698" y="-20.0"/>
      <point x="347.0754716981132" y="-20.0" type="curve" smooth="yes"/>
      <point x="423.84905660377353" y="-20.0"/>
      <point x="495.79245283018867" y="7.188679245283017"/>
      <point x="530.8490566037735" y="40.24528301886792" type="curve" smooth="yes"/>
      <point x="559.4150943396226" y="66.66037735849058"/>
      <point x="581.0188679245282" y="101.62264150943396"/>
      <point x="581.0188679245282" y="150.7924528301887" type="curve" smooth="yes"/>
      <point x="581.0188679245282" y="187.52830188679246"/>
      <point x="573.622641509434" y="208.22641509433961"/>
      <point x="554.2830188679245" y="223.92452830188682" type="curve"/>
      <point x="566.1886792452831" y="250.1320754716981" type="line"/>
      <point x="479.5660377358491" y="250.1320754716981" type="line"/>
      <point x="483.0188679245283" y="238.16981132075475"/>
      <point x="484.3207547169811" y="226.45283018867926"/>
      <point x="484.3207547169811" y="210.43396226415095" type="curve" smooth="yes"/>
      <point x="484.3207547169811" y="153.188679245283"/>
      <point x="436.64150943396226" y="114.90566037735847"/>
      <point x="353.66037735849056" y="114.90566037735847" type="curve" smooth="yes"/>
      <point x="266.6981132075472" y="114.90566037735847"/>
      <point x="217.37735849056602" y="143.09433962264148"/>
      <point x="191.67924528301884" y="205.58490566037736" type="curve" smooth="yes"/>
      <point x="189.83018867924525" y="224.0377358490566"/>
      <point x="188.9811320754717" y="250.07547169811318"/>
      <point x="188.9811320754717" y="272.9245283018868" type="curve"/>
      <point x="188.9811320754717" y="289.5660377358491" type="line"/>
      <point x="188.9811320754717" y="458.64150943396226"/>
      <point x="272.3584905660377" y="594.433962264151"/>
      <point x="393.64150943396226" y="594.433962264151" type="curve"/>
      <point x="412.47169811320754" y="594.433962264151"/>
      <point x="429.54716981132077" y="592.5283018867925"/>
      <point x="443.8679245283019" y="583.9056603773586" type="curve"/>
      <point x="439.3207547169811" y="619.4150943396227" type="line"/>
      <point x="429.9245283018868" y="574.622641509434"/>
      <point x="427.07547169811323" y="548.6226415094341"/>
      <point x="427.07547169811323" y="507.3962264150943" type="curve"/>
      <point x="427.07547169811323" y="468.01886792452825"/>
      <point x="454.0566037735849" y="454.0754716981132"/>
      <point x="505.52830188679246" y="454.0754716981132" type="curve"/>
      <point x="528.3584905660377" y="454.0754716981132"/>
      <point x="548.6415094339623" y="456.77358490566036"/>
      <point x="561.9811320754717" y="462.01886792452825" type="curve"/>
      <point x="561.9811320754717" y="486.28301886792457"/>
      <point x="561.9811320754717" y="513.0943396226415"/>
      <point x="561.9811320754717" y="539.9056603773585" type="curve"/>
      <point x="561.9811320754717" y="599.5849056603773"/>
      <point x="544.7358490566038" y="637.622641509434"/>
      <point x="508.0" y="674.2075471698114" type="curve" smooth="yes"/>
      <point x="474.90566037735846" y="707.0"/>
      <point x="433.6037735849057" y="720.0"/>
    </contour>
  </outline>
</glyph>
<glyph name="M" format="2">
  <advance width="800.0"/>
  <unicode hex="004D"/>
  <anchor x="402.39622641509436" y="0.0" name="bottom"/>
  <outline>
    <contour>
      <point x="193.67924528301884" y="-1.5094339622641524" type="curve"/>
      <point x="189.43396226415092" y="44.471698113207545"/>
      <point x="186.88679245283018" y="90.94339622641508"/>
      <point x="186.88679245283018" y="141.3962264150943" type="curve"/>
      <point x="186.88679245283018" y="233.43396226415095"/>
      <point x="196.30188679245282" y="346.811320754717"/>
      <point x="213.84905660377356" y="515.5471698113208" type="curve"/>
      <point x="191.66037735849056" y="486.15094339622647" type="line"/>
      <point x="249.52830188679243" y="486.15094339622647" type="line"/>
      <point x="211.1509433962264" y="513.3018867924528" type="line"/>
      <point x="247.66037735849056" y="332.8679245283019"/>
      <point x="314.88679245283015" y="167.0"/>
      <point x="355.0754716981132" y="128.64150943396226" type="curve" smooth="yes"/>
      <point x="367.8679245283019" y="117.39622641509433"/>
      <point x="380.811320754717" y="114.54716981132076"/>
      <point x="402.8490566037736" y="114.54716981132076" type="curve" smooth="yes"/>
      <point x="420.5849056603774" y="114.54716981132076"/>
      <point x="437.47169811320754" y="117.09433962264151"/>
      <point x="449.2641509433962" y="123.0377358490566" type="curve"/>
      <point x="492.18867924528297" y="181.86792452830187"/>
      <point x="558.6415094339623" y="375.22641509433964"/>
      <point x="587.9811320754717" y="514.1132075471698" type="curve"/>
      <point x="549.5094339622642" y="484.94339622641513" type="line"/>
      <point x="606.622641509434" y="484.94339622641513" type="line"/>
      <point x="584.6792452830189" y="515.8490566037735" type="line"/>
      <point x="598.3962264150944" y="366.90566037735846"/>
      <point x="608.2075471698114" y="256.60377358490564"/>
      <point x="608.2075471698114" y="183.62264150943395" type="curve"/>
      <point x="608.2075471698114" y="144.54716981132074"/>
      <point x="606.5094339622642" y="91.15094339622641"/>
      <point x="606.5094339622642" y="69.11320754716981" type="curve" smooth="yes"/>
      <point x="606.5094339622642" y="9.792452830188678"/>
      <point x="624.754716981132" y="-8.30188679245283"/>
      <point x="695.2075471698113" y="-8.30188679245283" type="curve"/>
      <point x="721.5849056603774" y="-8.30188679245283"/>
      <point x="746.4150943396227" y="-5.603773584905661"/>
      <point x="760.9056603773585" y="-1.0566037735849072" type="curve"/>
      <point x="753.0566037735849" y="29.69811320754717"/>
      <point x="746.5094339622641" y="74.13207547169812"/>
      <point x="742.1132075471698" y="178.1132075471698" type="curve"/>
      <point x="737.2641509433962" y="308.64150943396226"/>
      <point x="729.7547169811321" y="437.9433962264151"/>
      <point x="707.6037735849056" y="619.4716981132076" type="curve" smooth="yes"/>
      <point x="699.4528301886793" y="685.1698113207548"/>
      <point x="679.3207547169811" y="708.3018867924528"/>
      <point x="582.6792452830189" y="708.3018867924528" type="curve" smooth="yes"/>
      <point x="545.2075471698113" y="708.3018867924528"/>
      <point x="526.8679245283018" y="705.6037735849056"/>
      <point x="510.37735849056605" y="701.2075471698113" type="curve"/>
      <point x="486.4150943396226" y="551.6415094339623"/>
      <point x="443.1320754716981" y="370.45283018867923"/>
      <point x="392.33962264150944" y="257.0754716981132" type="curve"/>
      <point x="433.49056603773585" y="282.1320754716981" type="line"/>
      <point x="372.1509433962264" y="282.1320754716981" type="line"/>
      <point x="406.811320754717" y="255.77358490566036" type="line"/>
      <point x="363.3207547169811" y="368.8301886792452"/>
      <point x="326.75471698113205" y="515.4150943396227"/>
      <point x="307.79245283018867" y="637.8867924528303" type="curve" smooth="yes"/>
      <point x="299.5471698113207" y="689.3584905660377"/>
      <point x="263.3207547169811" y="708.3018867924528"/>
      <point x="171.41509433962264" y="708.3018867924528" type="curve" smooth="yes"/>
      <point x="126.90566037735849" y="708.3018867924528"/>
      <point x="104.62264150943396" y="705.6037735849056"/>
      <point x="84.33962264150944" y="701.2075471698113" type="curve"/>
      <point x="90.58490566037737" y="678.1698113207548"/>
      <point x="92.58490566037737" y="660.3018867924529"/>
      <point x="91.37735849056605" y="628.377358490566" type="curve"/>
      <point x="88.9622641509434" y="519.5283018867924"/>
      <point x="50.28301886792454" y="313.9433962264151"/>
      <point x="50.28301886792454" y="67.49056603773585" type="curve" smooth="yes"/>
      <point x="50.28301886792454" y="10.43396226415094"/>
      <point x="88.66037735849058" y="-8.30188679245283"/>
      <point x="131.88679245283018" y="-8.30188679245283" type="curve"/>
      <point x="149.32075471698113" y="-8.30188679245283"/>
      <point x="183.88679245283015" y="-6.603773584905661"/>
    </contour>
  </outline>
</glyph>
<glyph name="N" format="2">
  <advance width="650.0"/>
  <unicode hex="004E"/>
  <anchor x="347.6981132075472" y="711.0" name="top"/>
  <anchor x="347.6981132075472" y="-1.0" name="bottom"/>
  <outline>
    <contour>
      <point x="195.188679245283" y="-1.2075471698113223" type="curve"/>
      <point x="195.188679245283" y="18.50943396226415"/>
      <point x="195.188679245283" y="37.528301886792455"/>
      <point x="195.188679245283" y="61.49056603773586" type="curve"/>
      <point x="195.188679245283" y="200.7358490566038"/>
      <point x="189.09433962264148" y="330.96226415094344"/>
      <point x="172.9056603773585" y="515.622641509434" type="curve"/>
      <point x="151.56603773584905" y="485.4716981132076" type="line"/>
      <point x="210.58490566037736" y="485.4716981132076" type="line"/>
      <point x="171.99999999999997" y="514.5849056603773" type="line"/>
      <point x="239.22641509433961" y="296.39622641509436"/>
      <point x="350.9433962264151" y="117.45283018867923"/>
      <point x="434.6792452830189" y="30.320754716981128" type="curve" smooth="yes"/>
      <point x="464.50943396226415" y="-1.2075471698113223"/>
      <point x="487.94339622641513" y="-10.0"/>
      <point x="538.7547169811321" y="-10.0" type="curve" smooth="yes"/>
      <point x="564.2830188679245" y="-10.0"/>
      <point x="583.7169811320755" y="-6.452830188679246"/>
      <point x="600.7547169811321" y="-1.0566037735849072" type="curve"/>
      <point x="593.1132075471698" y="34.39622641509434"/>
      <point x="590.5660377358491" y="71.0"/>
      <point x="590.5660377358491" y="106.75471698113208" type="curve"/>
      <point x="590.5660377358491" y="280.0754716981132"/>
      <point x="590.5660377358491" y="453.39622641509436"/>
      <point x="590.5660377358491" y="619.9245283018868" type="curve"/>
      <point x="590.5660377358491" y="682.9245283018868"/>
      <point x="574.2641509433963" y="708.3018867924528"/>
      <point x="510.6603773584906" y="708.3018867924528" type="curve"/>
      <point x="483.0377358490567" y="708.3018867924528"/>
      <point x="467.15094339622647" y="705.7547169811321"/>
      <point x="455.66037735849056" y="701.5094339622641" type="curve"/>
      <point x="455.66037735849056" y="641.8113207547169"/>
      <point x="455.66037735849056" y="583.1132075471698"/>
      <point x="455.66037735849056" y="522.566037735849" type="curve"/>
      <point x="455.66037735849056" y="375.5471698113207"/>
      <point x="458.20754716981133" y="286.41509433962267"/>
      <point x="470.09433962264154" y="170.56603773584902" type="curve"/>
      <point x="496.4339622641509" y="193.71698113207546" type="line"/>
      <point x="431.4150943396226" y="193.71698113207546" type="line"/>
      <point x="475.3018867924528" y="173.56603773584902" type="line"/>
      <point x="357.50943396226415" y="344.2264150943396"/>
      <point x="305.75471698113205" y="471.45283018867923"/>
      <point x="254.77358490566036" y="621.4905660377359" type="curve" smooth="yes"/>
      <point x="231.43396226415092" y="689.6603773584906"/>
      <point x="210.3396226415094" y="708.3018867924528"/>
      <point x="135.18867924528303" y="708.3018867924528" type="curve" smooth="yes"/>
      <point x="102.66037735849056" y="708.3018867924528"/>
      <point x="76.22641509433963" y="706.4528301886793"/>
      <point x="48.188679245283026" y="701.0566037735849" type="curve"/>
      <point x="56.73584905660378" y="665.2075471698113"/>
      <point x="60.28301886792454" y="628.7924528301887"/>
      <point x="60.28301886792454" y="591.5094339622641" type="curve"/>
      <point x="60.28301886792454" y="425.377358490566"/>
      <point x="60.28301886792454" y="258.9433962264151"/>
      <point x="60.28301886792454" y="92.81132075471696" type="curve"/>
      <point x="60.28301886792454" y="25.56603773584905"/>
      <point x="86.77358490566039" y="-7.452830188679246"/>
      <point x="142.67924528301887" y="-7.452830188679246" type="curve"/>
      <point x="162.2641509433962" y="-7.452830188679246"/>
      <point x="183.54716981132074" y="-4.754716981132076"/>
    </contour>
  </outline>
</glyph>
<glyph name="X" format="2">
  <advance width="600.0"/>
  <unicode hex="0058"/>
  <outline>
    <contour>
      <point x="518.0188679245283" y="-11.69811320754717" type="curve" smooth="yes"/>
      <point x="540.811320754717" y="-11.69811320754717"/>
      <point x="564.9433962264152" y="-7.849056603773585"/>
      <point x="581.433962264151" y="0.0" type="curve"/>
      <point x="508.16981132075466" y="80.64150943396227"/>
      <point x="431.84905660377353" y="199.49056603773585"/>
      <point x="363.2830188679245" y="322.64150943396226" type="curve"/>
      <point x="327.75471698113205" y="390.64150943396226" type="line"/>
      <point x="276.566037735849" y="488.52830188679246"/>
      <point x="246.37735849056602" y="553.7547169811321"/>
      <point x="215.77358490566036" y="637.7547169811321" type="curve" smooth="yes"/>
      <point x="197.03773584905656" y="691.811320754717"/>
      <point x="158.1698113207547" y="707.6981132075472"/>
      <point x="87.98113207547169" y="707.6981132075472" type="curve" smooth="yes"/>
      <point x="64.79245283018868" y="707.6981132075471"/>
      <point x="43.452830188679236" y="705.6981132075472"/>
      <point x="19.716981132075475" y="700.0" type="curve"/>
      <point x="67.0188679245283" y="584.3962264150944"/>
      <point x="141.47169811320754" y="433.3018867924528"/>
      <point x="221.52830188679246" y="293.811320754717" type="curve"/>
      <point x="256.60377358490564" y="232.35849056603774" type="line"/>
      <point x="301.7924528301887" y="157.66037735849056"/>
      <point x="347.13207547169816" y="89.16981132075472"/>
      <point x="388.9056603773585" y="36.16981132075471" type="curve" smooth="yes"/>
      <point x="415.4905660377359" y="0.5471698113207539"/>
      <point x="447.622641509434" y="-11.69811320754717"/>
    </contour>
    <contour>
      <point x="473.2075471698113" y="707.5471698113207" type="curve"/>
      <point x="452.3207547169812" y="707.5471698113207"/>
      <point x="438.37735849056605" y="705.6981132075472"/>
      <point x="421.8867924528302" y="700.3018867924528" type="curve"/>
      <point x="395.75471698113205" y="575.1886792452831"/>
      <point x="367.62264150943395" y="486.52830188679246"/>
      <point x="324.811320754717" y="410.07547169811323" type="curve"/>
      <point x="276.94339622641513" y="410.07547169811323" type="line"/>
      <point x="354.0943396226415" y="284.0188679245283" type="line"/>
      <point x="458.75471698113205" y="395.0377358490566"/>
      <point x="517.9622641509434" y="500.6792452830189"/>
      <point x="552.0943396226414" y="607.0754716981132" type="curve"/>
      <point x="576.9245283018868" y="689.6037735849056"/>
      <point x="529.4716981132076" y="707.5471698113207"/>
    </contour>
    <contour>
      <point x="123.52830188679245" y="-8.30188679245283" type="curve" smooth="yes"/>
      <point x="143.86792452830187" y="-8.30188679245283"/>
      <point x="168.1509433962264" y="-5.30188679245283"/>
      <point x="184.188679245283" y="-0.45283018867924607" type="curve"/>
      <point x="199.8679245283019" y="78.32075471698113"/>
      <point x="225.81132075471697" y="153.69811320754718"/>
      <point x="260.6981132075472" y="216.0188679245283" type="curve"/>
      <point x="297.77358490566036" y="216.0188679245283" type="line"/>
      <point x="231.32075471698113" y="337.8867924528302" type="line"/>
      <point x="134.22641509433961" y="238.79245283018867"/>
      <point x="74.9622641509434" y="156.0188679245283"/>
      <point x="42.94339622641509" y="83.28301886792451" type="curve"/>
      <point x="15.264150943396228" y="19.13207547169811"/>
      <point x="63.018867924528294" y="-8.30188679245283"/>
    </contour>
  </outline>
</glyph>
<glyph name="b" format="2">
  <advance width="600.0"/>
  <unicode hex="0062"/>
  <outline>
    <contour>
      <point x="182.2641509433962" y="-0.7547169811320762" type="curve" smooth="yes"/>
      <point x="195.42810676399057" y="39.99235542003773"/>
      <point x="206.69811320754715" y="100.49927431057547"/>
      <point x="206.69811320754715" y="149.0" type="curve"/>
      <point x="206.69811320754715" y="298.47909400346225"/>
      <point x="206.69811320754715" y="439.82724713202833"/>
      <point x="206.69811320754715" y="594.2452830188679" type="curve"/>
      <point x="206.69811320754715" y="717.811320754717"/>
      <point x="153.18867924528303" y="755.5471698113207"/>
      <point x="93.77358490566037" y="755.5471698113207" type="curve"/>
      <point x="80.28301886792454" y="755.5471698113207"/>
      <point x="66.64150943396227" y="752.8490566037735"/>
      <point x="53.15094339622643" y="750.0" type="curve"/>
      <point x="66.39622641509436" y="725.5471698113207"/>
      <point x="71.7924528301887" y="687.9245283018869"/>
      <point x="71.7924528301887" y="652.8113207547169" type="curve"/>
      <point x="71.7924528301887" y="463.08571010677736"/>
      <point x="71.7924528301887" y="334.89542196869434"/>
      <point x="71.7924528301887" y="135.83018867924525" type="curve" smooth="yes"/>
      <point x="71.7924528301887" y="63.158326497132066"/>
      <point x="93.09119496856604" y="-3.3018867924528306"/>
      <point x="159.52830188679246" y="-3.3018867924528306" type="curve" smooth="yes"/>
      <point x="166.77358490566036" y="-3.3018867924528306"/>
      <point x="175.0188679245283" y="-3.3018867924528306"/>
    </contour>
    <contour>
      <point x="184.41509433962264" y="72.33962264150942" type="line"/>
      <point x="206.35849056603772" y="72.33962264150942" type="line"/>
      <point x="230.2641509433962" y="32.094339622641506"/>
      <point x="284.35849056603774" y="-11.69811320754717"/>
      <point x="343.50943396226415" y="-11.69811320754717" type="curve" smooth="yes"/>
      <point x="448.24528301886795" y="-11.69811320754717"/>
      <point x="554.7169811320755" y="85.60377358490567"/>
      <point x="554.7169811320755" y="320.79245283018867" type="curve" smooth="yes"/>
      <point x="554.7169811320755" y="342.03773584905656" type="line" smooth="yes"/>
      <point x="554.7169811320755" y="456.3018867924528"/>
      <point x="480.28301886792457" y="549.5849056603773"/>
      <point x="399.1132075471698" y="549.5849056603773" type="curve" smooth="yes"/>
      <point x="322.3584905660377" y="549.5849056603773"/>
      <point x="246.35849056603774" y="477.6981132075471"/>
      <point x="213.1509433962264" y="387.92452830188677" type="curve"/>
      <point x="194.60377358490567" y="387.92452830188677" type="line"/>
      <point x="194.60377358490567" y="212.15094339622644" type="line"/>
      <point x="241.83018867924528" y="355.8301886792453"/>
      <point x="303.33962264150944" y="405.33962264150944"/>
      <point x="383.73584905660374" y="405.33962264150944" type="curve" smooth="yes"/>
      <point x="392.3207547169811" y="405.33962264150944"/>
      <point x="399.9433962264151" y="402.47169811320754"/>
      <point x="406.0566037735849" y="397.54716981132077" type="curve" smooth="yes"/>
      <point x="413.26415094339626" y="378.77358490566036"/>
      <point x="415.5660377358491" y="354.4150943396226"/>
      <point x="415.5660377358491" y="312.1132075471698" type="curve" smooth="yes"/>
      <point x="415.5660377358491" y="301.4150943396226" type="line" smooth="yes"/>
      <point x="415.5660377358491" y="182.2452830188679"/>
      <point x="377.15094339622647" y="118.1132075471698"/>
      <point x="297.71698113207543" y="118.1132075471698" type="curve" smooth="yes"/>
      <point x="251.3396226415094" y="118.1132075471698"/>
      <point x="212.64150943396226" y="141.96226415094338"/>
      <point x="184.4150943396226" y="172.99999999999997" type="curve"/>
    </contour>
  </outline>
</glyph>
<glyph name="n" format="2">
  <advance width="600.0"/>
  <unicode hex="006E"/>
  <anchor x="300.0" y="548.8867924528302" name="top"/>
  <anchor x="302.54716981132077" y="-1.0" name="bottom"/>
  <anchor x="99.71698113207546" y="685.5283018867925" name="caronslovak"/>
  <outline>
    <contour>
      <point x="544.566037735849" y="0.0" type="curve"/>
      <point x="529.3207547169811" y="56.58490566037736"/>
      <point x="524.622641509434" y="92.28301886792454"/>
      <point x="524.622641509434" y="153.71698113207546" type="curve" smooth="yes"/>
      <point x="524.622641509434" y="231.1320754716981"/>
      <point x="524.622641509434" y="308.54716981132077"/>
      <point x="524.622641509434" y="385.9622641509434" type="curve" smooth="yes"/>
      <point x="524.622641509434" y="462.66037735849056"/>
      <point x="474.377358490566" y="549.7358490566038"/>
      <point x="413.20754716981133" y="549.7358490566038" type="curve"/>
      <point x="330.05660377358487" y="549.7358490566038"/>
      <point x="250.9056603773585" y="474.6792452830188"/>
      <point x="212.0377358490566" y="375.566037735849" type="curve"/>
      <point x="185.54716981132074" y="375.566037735849" type="line"/>
      <point x="186.0" y="149.8867924528302" type="line"/>
      <point x="238.24528301886792" y="337.22641509433964"/>
      <point x="301.8301886792453" y="400.39622641509436"/>
      <point x="364.811320754717" y="400.39622641509436" type="curve" smooth="yes"/>
      <point x="380.94339622641513" y="400.39622641509436"/>
      <point x="393.50943396226415" y="392.0188679245283"/>
      <point x="404.4150943396226" y="375.7169811320755" type="curve" smooth="yes"/>
      <point x="387.1698113207547" y="284.33962264150944"/>
      <point x="375.8301886792453" y="206.16981132075472"/>
      <point x="375.8301886792453" y="129.1509433962264" type="curve" smooth="yes"/>
      <point x="375.8301886792453" y="22.452830188679247"/>
      <point x="416.9622641509434" y="-5.396226415094339"/>
      <point x="493.05660377358487" y="-5.396226415094339" type="curve" smooth="yes"/>
      <point x="511.64150943396226" y="-5.396226415094339"/>
      <point x="526.8301886792453" y="-3.547169811320754"/>
    </contour>
    <contour>
      <point x="206.0377358490566" y="-0.7547169811320762" type="curve"/>
      <point x="206.0377358490566" y="110.9433962264151"/>
      <point x="206.0377358490566" y="250.50943396226415"/>
      <point x="206.0377358490566" y="382.5849056603774" type="curve" smooth="yes"/>
      <point x="206.0377358490566" y="506.45283018867923"/>
      <point x="158.62264150943395" y="543.8867924528302"/>
      <point x="93.11320754716981" y="543.8867924528302" type="curve"/>
      <point x="79.62264150943398" y="543.8867924528302"/>
      <point x="65.9811320754717" y="541.188679245283"/>
      <point x="52.49056603773585" y="538.3396226415094" type="curve"/>
      <point x="65.73584905660378" y="513.8867924528302"/>
      <point x="71.13207547169813" y="476.26415094339626"/>
      <point x="71.13207547169813" y="441.1509433962264" type="curve" smooth="yes"/>
      <point x="71.13207547169813" y="325.62264150943395"/>
      <point x="71.13207547169813" y="212.49056603773585"/>
      <point x="71.13207547169813" y="78.28301886792451" type="curve" smooth="yes"/>
      <point x="71.13207547169813" y="28.86792452830188"/>
      <point x="94.22641509433963" y="-3.3018867924528306"/>
      <point x="167.16981132075472" y="-3.3018867924528306" type="curve" smooth="yes"/>
      <point x="180.35849056603774" y="-3.3018867924528306"/>
      <point x="190.30188679245282" y="-3.3018867924528306"/>
    </contour>
  </outline>
</glyph>
<glyph name="o" format="2">
  <advance width="600.0"/>
  <unicode hex="006F"/>
  <anchor x="300.0" y="548.8867924528302" name="top"/>
  <anchor x="300.0" y="-1.0" name="bottom"/>
  <anchor x="421.49056603773585" y="516.0754716981132" name="horn"/>
  <anchor x="267.66037735849056" y="548.8867924528302" name="tildeviet"/>
  <anchor x="300.6981132075472" y="584.0" name="hook"/>
  <anchor x="486.75471698113205" y="73.64150943396228" name="ogonek"/>
  <outline>
    <contour>
      <point x="303.39622641509436" y="549.5849056603773" type="curve" smooth="yes"/>
      <point x="156.0188679245283" y="549.5849056603773"/>
      <point x="53.773584905660385" y="431.188679245283"/>
      <point x="53.773584905660385" y="253.9245283018868" type="curve" smooth="yes"/>
      <point x="53.773584905660385" y="240.83018867924528" type="line" smooth="yes"/>
      <point x="53.773584905660385" y="69.05660377358491"/>
      <point x="162.8490566037736" y="-11.69811320754717"/>
      <point x="295.75471698113205" y="-11.69811320754717" type="curve" smooth="yes"/>
      <point x="444.64150943396226" y="-11.69811320754717"/>
      <point x="546.2264150943396" y="88.58490566037736"/>
      <point x="546.2264150943396" y="239.58490566037736" type="curve" smooth="yes"/>
      <point x="546.2264150943396" y="252.67924528301887" type="line" smooth="yes"/>
      <point x="546.2264150943396" y="452.45283018867923"/>
      <point x="433.24528301886795" y="549.5849056603773"/>
    </contour>
    <contour>
      <point x="319.9811320754717" y="423.1698113207547" type="curve" smooth="yes"/>
      <point x="349.92452830188677" y="423.1698113207547"/>
      <point x="369.52830188679246" y="421.1698113207547"/>
      <point x="386.28301886792457" y="415.1698113207547" type="curve" smooth="yes"/>
      <point x="406.6415094339623" y="372.81132075471703"/>
      <point x="415.5660377358491" y="320.62264150943395"/>
      <point x="415.5660377358491" y="256.47169811320754" type="curve" smooth="yes"/>
      <point x="415.5660377358491" y="249.62264150943395" type="line" smooth="yes"/>
      <point x="415.5660377358491" y="156.35849056603772"/>
      <point x="371.60377358490564" y="114.71698113207546"/>
      <point x="275.77358490566036" y="114.71698113207546" type="curve" smooth="yes"/>
      <point x="245.62264150943398" y="114.71698113207546"/>
      <point x="225.96226415094338" y="117.01886792452828"/>
      <point x="205.69811320754715" y="121.77358490566036" type="curve" smooth="yes"/>
      <point x="190.54716981132074" y="152.73584905660377"/>
      <point x="184.43396226415095" y="191.86792452830187"/>
      <point x="184.43396226415095" y="236.8867924528302" type="curve" smooth="yes"/>
      <point x="184.43396226415095" y="243.73584905660377" type="line" smooth="yes"/>
      <point x="184.43396226415095" y="365.3018867924528"/>
      <point x="228.69811320754718" y="423.1698113207547"/>
    </contour>
  </outline>
</glyph>
<glyph name="z" format="2">
  <advance width="550.0"/>
  <unicode hex="007A"/>
  <anchor x="274.6981132075472" y="548.8867924528302" name="top"/>
  <anchor x="279.9433962264151" y="0.0" name="bottom"/>
  <outline>
    <contour>
      <point x="49.22641509433963" y="537.8867924528302" type="line"/>
      <point x="45.83018867924529" y="527.2452830188679"/>
      <point x="44.981132075471706" y="515.6037735849056"/>
      <point x="44.981132075471706" y="502.41509433962267" type="curve" smooth="yes"/>
      <point x="44.981132075471706" y="439.50943396226415"/>
      <point x="61.86792452830189" y="402.9811320754717"/>
      <point x="109.58490566037734" y="402.9811320754717" type="curve" smooth="yes"/>
      <point x="204.33962264150946" y="402.9811320754717" type="line" smooth="yes"/>
      <point x="248.7735849056604" y="402.9811320754717"/>
      <point x="287.50943396226415" y="405.52830188679246"/>
      <point x="338.7358490566038" y="414.4716981132076" type="curve"/>
      <point x="339.188679245283" y="407.7735849056604" type="line"/>
      <point x="327.09433962264154" y="383.58490566037733"/>
      <point x="307.0566037735849" y="361.49056603773585"/>
      <point x="291.26415094339626" y="342.94339622641513" type="curve" smooth="yes"/>
      <point x="219.81132075471703" y="257.64150943396226"/>
      <point x="133.56603773584908" y="184.0566037735849"/>
      <point x="44.981132075471706" y="125.35849056603772" type="curve"/>
      <point x="44.981132075471706" y="112.1698113207547" type="line" smooth="yes"/>
      <point x="44.981132075471706" y="53.50943396226414"/>
      <point x="58.47169811320755" y="0.0"/>
      <point x="103.64150943396226" y="0.0" type="curve" smooth="yes"/>
      <point x="498.47169811320754" y="0.0" type="line"/>
      <point x="501.8679245283019" y="14.886792452830186"/>
      <point x="504.41509433962267" y="35.018867924528294"/>
      <point x="504.41509433962267" y="54.99999999999999" type="curve" smooth="yes"/>
      <point x="504.41509433962267" y="114.50943396226414"/>
      <point x="489.22641509433964" y="134.9056603773585"/>
      <point x="437.26415094339626" y="134.9056603773585" type="curve"/>
      <point x="344.2641509433962" y="134.9056603773585" type="line" smooth="yes"/>
      <point x="299.88679245283015" y="134.9056603773585"/>
      <point x="255.96226415094335" y="132.2075471698113"/>
      <point x="216.37735849056602" y="125.96226415094338" type="curve"/>
      <point x="216.07547169811318" y="132.66037735849056" type="line"/>
      <point x="240.811320754717" y="146.0566037735849"/>
      <point x="266.1509433962264" y="163.60377358490564"/>
      <point x="291.03773584905656" y="181.54716981132074" type="curve" smooth="yes"/>
      <point x="404.5471698113207" y="267.3207547169811"/>
      <point x="504.41509433962267" y="384.83018867924534"/>
      <point x="504.41509433962267" y="418.9245283018868" type="curve"/>
      <point x="504.41509433962267" y="426.0188679245283" type="line" smooth="yes"/>
      <point x="504.41509433962267" y="473.0943396226415"/>
      <point x="469.79245283018867" y="537.8867924528302"/>
      <point x="417.7358490566038" y="537.8867924528302" type="curve"/>
    </contour>
  </outline>
</glyph>
<glyph name="twosuperior" format="2">
  <advance width="600.0"/>
  <unicode hex="00B2"/>
  <outline>
    <contour>
      <point x="430.6981132075472" y="368.566037735849" type="curve"/>
      <point x="433.54716981132077" y="382.90566037735846"/>
      <point x="435.54716981132077" y="397.6981132075472"/>
      <point x="435.54716981132077" y="411.64150943396226" type="curve" smooth="yes"/>
      <point x="435.54716981132077" y="450.0188679245283"/>
      <point x="421.6981132075472" y="459.0188679245283"/>
      <point x="375.9622641509434" y="459.0188679245283" type="curve"/>
      <point x="331.37735849056605" y="459.0188679245283" type="line" smooth="yes"/>
      <point x="285.4150943396226" y="459.0188679245283"/>
      <point x="256.8679245283019" y="455.16981132075466"/>
      <point x="217.0754716981132" y="439.22641509433964" type="curve"/>
      <point x="251.01886792452828" y="439.22641509433964" type="line"/>
      <point x="231.2641509433962" y="460.1698113207547" type="line"/>
      <point x="229.37735849056602" y="424.8301886792453" type="line"/>
      <point x="242.81132075471697" y="476.73584905660374"/>
      <point x="260.1132075471698" y="492.03773584905656"/>
      <point x="340.62264150943395" y="523.5471698113207" type="curve" smooth="yes"/>
      <point x="405.39622641509436" y="548.9622641509434"/>
      <point x="429.8490566037736" y="579.0"/>
      <point x="429.8490566037736" y="637.3962264150942" type="curve" smooth="yes"/>
      <point x="429.8490566037736" y="642.7924528301887" type="line" smooth="yes"/>
      <point x="429.8490566037736" y="690.8301886792452"/>
      <point x="391.66037735849056" y="738.6792452830189"/>
      <point x="290.7169811320755" y="738.6792452830189" type="curve" smooth="yes"/>
      <point x="235.41509433962264" y="738.6792452830189"/>
      <point x="197.9622641509434" y="727.7735849056604"/>
      <point x="179.9622641509434" y="709.7735849056604" type="curve" smooth="yes"/>
      <point x="166.0188679245283" y="695.8301886792452"/>
      <point x="163.0188679245283" y="673.9433962264151"/>
      <point x="163.0188679245283" y="652.8490566037736" type="curve" smooth="yes"/>
      <point x="163.0188679245283" y="639.0566037735849"/>
      <point x="164.8679245283019" y="626.1132075471698"/>
      <point x="169.41509433962264" y="615.7169811320755" type="curve"/>
      <point x="175.41509433962264" y="615.7169811320755" type="line"/>
      <point x="202.37735849056605" y="637.9245283018869"/>
      <point x="238.9245283018868" y="648.2264150943396"/>
      <point x="279.52830188679246" y="648.2264150943396" type="curve" smooth="yes"/>
      <point x="300.54716981132077" y="648.2264150943396"/>
      <point x="320.6981132075472" y="646.0188679245283"/>
      <point x="331.0" y="641.5094339622641" type="curve" smooth="yes"/>
      <point x="332.8490566037736" y="636.8113207547169"/>
      <point x="333.8490566037736" y="632.6603773584906"/>
      <point x="333.8490566037736" y="625.6603773584906" type="curve" smooth="yes"/>
      <point x="333.8490566037736" y="606.5471698113207"/>
      <point x="320.7547169811321" y="596.2452830188679"/>
      <point x="256.3962264150943" y="567.0943396226414" type="curve" smooth="yes"/>
      <point x="176.66037735849056" y="531.2830188679245"/>
      <point x="154.41509433962264" y="486.64150943396226"/>
      <point x="154.41509433962264" y="432.3018867924528" type="curve" smooth="yes"/>
      <point x="154.41509433962264" y="429.3018867924528" type="line" smooth="yes"/>
      <point x="154.41509433962264" y="387.7169811320755"/>
      <point x="171.66037735849056" y="368.566037735849"/>
      <point x="198.60377358490567" y="368.566037735849" type="curve" smooth="yes"/>
      <point x="231.0943396226415" y="368.566037735849"/>
      <point x="413.9056603773585" y="368.566037735849"/>
    </contour>
  </outline>
</glyph>
<glyph name="Eth" format="2">
  <advance width="650.0"/>
  <unicode hex="00D0"/>
  <outline>
    <contour>
      <point x="7.56603773584906" y="384.1132075471698" type="line"/>
      <point x="7.4150943396226445" y="380.2641509433962"/>
      <point x="7.2641509433962295" y="375.66037735849056"/>
      <point x="7.2641509433962295" y="370.66037735849056" type="curve" smooth="yes"/>
      <point x="7.2641509433962295" y="303.35849056603774"/>
      <point x="18.660377358490567" y="289.96226415094344"/>
      <point x="50.30188679245283" y="289.96226415094344" type="curve" smooth="yes"/>
      <point x="320.8301886792453" y="289.96226415094344" type="line"/>
      <point x="322.6792452830189" y="302.3018867924528"/>
      <point x="324.52830188679246" y="317.0943396226415"/>
      <point x="324.52830188679246" y="328.8867924528302" type="curve" smooth="yes"/>
      <point x="324.52830188679246" y="369.8679245283019"/>
      <point x="313.1320754716981" y="384.1132075471698"/>
      <point x="277.2452830188679" y="384.1132075471698" type="curve"/>
    </contour>
    <component base="D"/>
  </outline>
</glyph>
<glyph name="dcroat" format="2">
  <advance width="600.0"/>
  <unicode hex="0111"/>
  <outline>
    <contour>
      <point x="220.47169811320754" y="685.1698113207548" type="line"/>
      <point x="220.47169811320754" y="681.3207547169811"/>
      <point x="220.47169811320754" y="677.3207547169811"/>
      <point x="220.47169811320754" y="672.622641509434" type="curve" smooth="yes"/>
      <point x="220.47169811320754" y="609.0188679245283"/>
      <point x="231.36477987421884" y="595.2641509433962"/>
      <point x="262.1509433962264" y="595.2641509433962" type="curve" smooth="yes"/>
      <point x="580.0943396226415" y="595.2641509433962" type="line"/>
      <point x="581.7924528301887" y="607.6037735849056"/>
      <point x="583.4905660377359" y="621.7924528301887"/>
      <point x="583.4905660377359" y="633.2830188679245" type="curve" smooth="yes"/>
      <point x="583.4905660377359" y="670.566037735849"/>
      <point x="576.7924528301887" y="685.1698113207548"/>
      <point x="554.5471698113208" y="685.1698113207548" type="curve"/>
    </contour>
    <component base="d"/>
  </outline>
</glyph>
<glyph name="ldot" format="2">
  <advance width="450.0"/>
  <unicode hex="0140"/>
  <outline>
    <contour>
      <point x="35.26415094339623" y="134.90566037735846" type="line"/>
      <point x="31.56603773584906" y="122.96226415094337"/>
      <point x="28.01886792452831" y="102.52830188679243"/>
      <point x="28.01886792452831" y="81.79245283018867" type="curve" smooth="yes"/>
      <point x="28.01886792452831" y="24.037735849056602"/>
      <point x="58.490566037735846" y="0.0"/>
      <point x="102.0188679245283" y="0.0" type="curve" smooth="yes"/>
      <point x="318.0" y="0.0" type="line"/>
      <point x="322.39622641509436" y="17.283018867924525"/>
      <point x="324.24528301886795" y="37.26415094339622"/>
      <point x="324.24528301886795" y="55.54716981132074" type="curve" smooth="yes"/>
      <point x="324.24528301886795" y="108.2641509433962"/>
      <point x="314.1509433962264" y="134.90566037735846"/>
      <point x="251.0566037735849" y="134.90566037735846" type="curve"/>
    </contour>
    <contour>
      <point x="458.39622641509436" y="334.07547169811323" type="curve"/>
      <point x="458.39622641509436" y="412.39622641509436" type="line" smooth="yes"/>
      <point x="458.39622641509436" y="461.5660377358491"/>
      <point x="421.7169811320755" y="470.3207547169811"/>
      <point x="374.433962264151" y="470.3207547169811" type="curve" smooth="yes"/>
      <point x="355.64150943396226" y="470.3207547169811"/>
      <point x="332.05660377358487" y="468.47169811320754"/>
      <point x="312.1698113207547" y="464.77358490566036" type="curve"/>
      <point x="312.1698113207547" y="386.45283018867923" type="line" smooth="yes"/>
      <point x="312.1698113207547" y="337.2830188679245"/>
      <point x="349.84905660377353" y="328.52830188679246"/>
      <point x="396.1320754716981" y="328.52830188679246" type="curve" smooth="yes"/>
      <point x="414.92452830188677" y="328.52830188679246"/>
      <point x="438.50943396226415" y="330.37735849056605"/>
    </contour>
    <contour>
      <point x="29.905660377358494" y="750.0" type="curve"/>
      <point x="26.207547169811324" y="735.6603773584906"/>
      <point x="22.66037735849057" y="713.5283018867925"/>
      <point x="22.66037735849057" y="692.9433962264151" type="curve" smooth="yes"/>
      <point x="22.66037735849057" y="626.4905660377359"/>
      <point x="43.39622641509434" y="612.2452830188679"/>
      <point x="64.49056603773585" y="612.2452830188679" type="curve" smooth="yes"/>
      <point x="75.75471698113208" y="612.2452830188679"/>
      <point x="94.03773584905662" y="616.8490566037736"/>
      <point x="108.60377358490568" y="625.4528301886793" type="curve"/>
      <point x="113.60377358490568" y="623.0" type="line"/>
      <point x="113.60377358490568" y="494.3207547169811"/>
      <point x="113.60377358490568" y="360.24528301886795"/>
      <point x="113.60377358490568" y="233.2641509433962" type="curve" smooth="yes"/>
      <point x="113.60377358490568" y="182.49056603773585"/>
      <point x="120.00000000000001" y="164.79245283018867"/>
      <point x="133.9433962264151" y="140.60377358490564" type="curve"/>
      <point x="117.45283018867926" y="105.07547169811319" type="line"/>
      <point x="248.50943396226413" y="105.07547169811319" type="line"/>
      <point x="248.50943396226413" y="290.5283018867924"/>
      <point x="248.50943396226413" y="487.01886792452825"/>
      <point x="248.50943396226413" y="672.4716981132076" type="curve" smooth="yes"/>
      <point x="248.50943396226413" y="728.6792452830189"/>
      <point x="216.0754716981132" y="760.0"/>
      <point x="152.66037735849056" y="760.0" type="curve"/>
      <point x="121.90566037735849" y="760.0"/>
      <point x="71.69811320754717" y="757.6981132075472"/>
    </contour>
  </outline>
</glyph>
<glyph name="dzcaron" format="2">
  <advance width="1150.0"/>
  <unicode hex="01C6"/>
  <outline>
    <contour>
      <point x="256.49056603773585" y="549.5849056603773" type="curve" smooth="yes"/>
      <point x="151.75471698113208" y="549.5849056603773"/>
      <point x="45.28301886792453" y="452.2830188679245"/>
      <point x="45.28301886792453" y="217.09433962264148" type="curve" smooth="yes"/>
      <point x="45.28301886792453" y="195.84905660377356" type="line" smooth="yes"/>
      <point x="45.28301886792453" y="81.58490566037736"/>
      <point x="119.71698113207546" y="-11.69811320754717"/>
      <point x="200.88679245283018" y="-11.69811320754717" type="curve" smooth="yes"/>
      <point x="277.49056603773585" y="-11.69811320754717"/>
      <point x="353.33962264150944" y="61.09433962264151"/>
      <point x="387.1509433962264" y="148.75471698113208" type="curve"/>
      <point x="403.6981132075472" y="148.75471698113208" type="line"/>
      <point x="403.6981132075472" y="324.0377358490566" type="line"/>
      <point x="358.3207547169811" y="182.0566037735849"/>
      <point x="296.66037735849056" y="132.54716981132074"/>
      <point x="216.26415094339623" y="132.54716981132074" type="curve" smooth="yes"/>
      <point x="206.83018867924528" y="132.54716981132074"/>
      <point x="198.60377358490564" y="135.2641509433962"/>
      <point x="191.03773584905662" y="141.8490566037736" type="curve" smooth="yes"/>
      <point x="185.58490566037736" y="163.56603773584905"/>
      <point x="184.43396226415092" y="187.37735849056602"/>
      <point x="184.43396226415092" y="225.77358490566039" type="curve" smooth="yes"/>
      <point x="184.43396226415092" y="236.47169811320754" type="line" smooth="yes"/>
      <point x="184.43396226415092" y="355.6415094339623"/>
      <point x="222.84905660377356" y="419.7735849056604"/>
      <point x="302.28301886792457" y="419.7735849056604" type="curve" smooth="yes"/>
      <point x="348.75471698113205" y="419.7735849056604"/>
      <point x="380.11320754716985" y="404.5660377358491"/>
      <point x="408.7924528301887" y="372.52830188679246" type="curve"/>
      <point x="408.7924528301887" y="471.54716981132077" type="line"/>
      <point x="388.0" y="471.54716981132077" type="line"/>
      <point x="366.33962264150944" y="512.3962264150944"/>
      <point x="316.5849056603774" y="549.5849056603773"/>
    </contour>
    <contour>
      <point x="415.2830188679245" y="756.3018867924528" type="curve"/>
      <point x="401.79245283018867" y="756.3018867924528"/>
      <point x="388.15094339622647" y="753.6037735849056"/>
      <point x="374.6603773584906" y="750.7547169811321" type="curve"/>
      <point x="387.9056603773585" y="726.3018867924528"/>
      <point x="393.3018867924529" y="688.6792452830189"/>
      <point x="393.3018867924529" y="653.566037735849" type="curve"/>
      <point x="393.3018867924529" y="465.60377358490564"/>
      <point x="393.3018867924529" y="339.3207547169811"/>
      <point x="393.3018867924529" y="142.01886792452828" type="curve"/>
      <point x="393.3018867924529" y="65.54716981132074"/>
      <point x="421.09433962264154" y="-6.547169811320754"/>
      <point x="495.188679245283" y="-6.547169811320754" type="curve" smooth="yes"/>
      <point x="512.9245283018868" y="-6.547169811320754"/>
      <point x="526.566037735849" y="-3.0"/>
      <point x="544.3018867924528" y="0.6981132075471694" type="curve"/>
      <point x="531.9056603773585" y="39.58490566037736"/>
      <point x="528.2075471698113" y="73.81132075471697"/>
      <point x="528.2075471698113" y="114.86792452830188" type="curve" smooth="yes"/>
      <point x="528.2075471698113" y="273.9622641509434"/>
      <point x="528.2075471698113" y="429.1132075471698"/>
      <point x="528.2075471698113" y="595.0" type="curve"/>
      <point x="528.2075471698113" y="719.3207547169811"/>
      <point x="474.0943396226415" y="756.3018867924528"/>
    </contour>
    <contour>
      <point x="637.7169811320755" y="537.8867924528302" type="line"/>
      <point x="634.3207547169811" y="527.2452830188679"/>
      <point x="633.4716981132076" y="515.6037735849056"/>
      <point x="633.4716981132076" y="502.41509433962267" type="curve" smooth="yes"/>
      <point x="633.4716981132076" y="448.0"/>
      <point x="650.3584905660377" y="402.9811320754717"/>
      <point x="698.0754716981132" y="402.9811320754717" type="curve" smooth="yes"/>
      <point x="927.2264150943396" y="402.9811320754717" type="line"/>
      <point x="927.6792452830189" y="396.28301886792457" type="line"/>
      <point x="907.8867924528303" y="375.07547169811323"/>
      <point x="892.7358490566038" y="358.1132075471698"/>
      <point x="874.5849056603773" y="337.6037735849057" type="curve" smooth="yes"/>
      <point x="802.9811320754717" y="256.50943396226415"/>
      <point x="722.0943396226415" y="186.9433962264151"/>
      <point x="633.4716981132076" y="125.35849056603772" type="curve"/>
      <point x="633.4716981132076" y="112.1698113207547" type="line" smooth="yes"/>
      <point x="633.4716981132076" y="53.50943396226414"/>
      <point x="646.9622641509434" y="0.0"/>
      <point x="692.132075471698" y="0.0" type="curve" smooth="yes"/>
      <point x="1086.9622641509434" y="0.0" type="line"/>
      <point x="1090.3584905660375" y="14.886792452830186"/>
      <point x="1092.9056603773583" y="35.018867924528294"/>
      <point x="1092.9056603773583" y="54.99999999999999" type="curve" smooth="yes"/>
      <point x="1092.9056603773583" y="114.50943396226414"/>
      <point x="1077.7169811320753" y="134.9056603773585"/>
      <point x="1025.7547169811319" y="134.9056603773585" type="curve"/>
      <point x="799.9245283018868" y="134.9056603773585" type="line"/>
      <point x="799.622641509434" y="141.60377358490564" type="line"/>
      <point x="824.7169811320755" y="152.50943396226413"/>
      <point x="849.811320754717" y="163.26415094339623"/>
      <point x="873.0566037735848" y="179.56603773584905" type="curve" smooth="yes"/>
      <point x="995.9433962264151" y="264.33962264150944"/>
      <point x="1092.9056603773583" y="384.13207547169816"/>
      <point x="1092.9056603773583" y="418.9245283018868" type="curve"/>
      <point x="1092.9056603773583" y="426.0188679245283" type="line" smooth="yes"/>
      <point x="1092.9056603773583" y="473.0943396226415"/>
      <point x="1058.2830188679245" y="537.8867924528302"/>
      <point x="1006.2264150943395" y="537.8867924528302" type="curve"/>
    </contour>
    <contour>
      <point x="896.6603773584906" y="632.5094339622642" type="curve"/>
      <point x="943.622641509434" y="653.6603773584907"/>
      <point x="1006.3584905660377" y="700.0566037735849"/>
      <point x="1036.867924528302" y="744.3584905660377" type="curve" smooth="yes"/>
      <point x="1053.7735849056603" y="769.5094339622642"/>
      <point x="1060.7735849056603" y="787.5094339622641"/>
      <point x="1060.7735849056603" y="798.9056603773586" type="curve" smooth="yes"/>
      <point x="1060.7735849056603" y="816.6981132075472"/>
      <point x="1027.6037735849056" y="831.3396226415094"/>
      <point x="966.8490566037736" y="831.3396226415094" type="curve" smooth="yes"/>
      <point x="960.8490566037736" y="831.3396226415094" type="line"/>
      <point x="940.8867924528302" y="796.1698113207547"/>
      <point x="905.811320754717" y="758.6037735849056"/>
      <point x="841.7358490566037" y="712.9056603773585" type="curve"/>
      <point x="895.3396226415094" y="730.1509433962264" type="line"/>
      <point x="829.4905660377358" y="730.1509433962264" type="line"/>
      <point x="884.9433962264151" y="714.7547169811321" type="line"/>
      <point x="829.7169811320754" y="747.5094339622641"/>
      <point x="804.8490566037736" y="770.9245283018868"/>
      <point x="785.6792452830189" y="796.3962264150944" type="curve" smooth="yes"/>
      <point x="764.4339622641509" y="824.1886792452831"/>
      <point x="752.4905660377358" y="830.8867924528303"/>
      <point x="724.3584905660377" y="830.8867924528303" type="curve" smooth="yes"/>
      <point x="693.6792452830189" y="830.8867924528303"/>
      <point x="671.2452830188679" y="826.3396226415094"/>
      <point x="650.3584905660377" y="813.3962264150944" type="curve"/>
      <point x="682.2641509433962" y="747.3962264150944"/>
      <point x="727.2830188679246" y="698.9433962264152"/>
      <point x="774.9245283018868" y="664.3018867924529" type="curve" smooth="yes"/>
      <point x="812.4716981132076" y="636.9056603773586"/>
      <point x="830.2641509433962" y="632.5094339622642"/>
      <point x="864.7358490566038" y="632.5094339622642" type="curve" smooth="yes"/>
      <point x="879.6226415094341" y="632.5094339622642"/>
      <point x="887.7169811320755" y="632.5094339622642"/>
    </contour>
  </outline>
</glyph>
<glyph name="LJ" format="2">
  <advance width="850.0"/>
  <unicode hex="01C7"/>
  <outline>
    <contour>
      <point x="159.9811320754717" y="0.0" type="curve" smooth="yes"/>
      <point x="464.75471698113205" y="0.0" type="line"/>
      <point x="474.09433962264154" y="91.1320754716981"/>
      <point x="454.50943396226415" y="134.9056603773585"/>
      <point x="401.8490566037736" y="134.9056603773585" type="curve" smooth="yes"/>
      <point x="214.73584905660374" y="134.9056603773585" type="line"/>
      <point x="214.73584905660374" y="300.9433962264151"/>
      <point x="214.73584905660374" y="474.8679245283019"/>
      <point x="214.73584905660374" y="623.9245283018868" type="curve"/>
      <point x="214.73584905660374" y="689.6792452830189"/>
      <point x="194.05660377358487" y="709.3962264150944"/>
      <point x="128.33962264150944" y="709.3962264150944" type="curve" smooth="yes"/>
      <point x="101.66037735849058" y="709.3962264150944"/>
      <point x="79.67924528301887" y="705.8490566037735"/>
      <point x="59.24528301886794" y="700.4528301886793" type="curve"/>
      <point x="67.7924528301887" y="666.3018867924528"/>
      <point x="71.33962264150944" y="632.7169811320755"/>
      <point x="71.33962264150944" y="591.5094339622641" type="curve" smooth="yes"/>
      <point x="71.33962264150944" y="441.1698113207548"/>
      <point x="71.33962264150944" y="291.377358490566"/>
      <point x="71.33962264150944" y="143.0" type="curve" smooth="yes"/>
      <point x="71.33962264150944" y="78.33962264150942"/>
      <point x="98.92452830188681" y="0.0"/>
    </contour>
    <contour>
      <point x="392.7169811320755" y="229.1509433962264" type="curve"/>
      <point x="392.7169811320755" y="112.98113207547169"/>
      <point x="367.41509433962267" y="59.84905660377358"/>
      <point x="367.26415094339626" y="-4.0" type="curve" smooth="yes"/>
      <point x="367.11320754716985" y="-27.094339622641513"/>
      <point x="392.4528301886793" y="-42.283018867924525"/>
      <point x="459.35849056603774" y="-42.283018867924525" type="curve"/>
      <point x="490.6981132075472" y="23.60377358490566"/>
      <point x="517.433962264151" y="99.45283018867923"/>
      <point x="517.433962264151" y="177.83018867924528" type="curve" smooth="yes"/>
      <point x="517.433962264151" y="219.60377358490564"/>
      <point x="497.73584905660374" y="234.2452830188679"/>
      <point x="443.47169811320754" y="234.2452830188679" type="curve" smooth="yes"/>
      <point x="423.49056603773585" y="234.2452830188679"/>
      <point x="405.9056603773585" y="232.54716981132074"/>
    </contour>
    <contour>
      <point x="502.81132075471703" y="-86.71698113207547" type="curve"/>
      <point x="524.6415094339623" y="-102.47169811320755"/>
      <point x="549.8301886792452" y="-109.83018867924528"/>
      <point x="585.1320754716982" y="-109.83018867924528" type="curve" smooth="yes"/>
      <point x="648.3018867924528" y="-109.83018867924528"/>
      <point x="696.3018867924528" y="-89.28301886792454"/>
      <point x="727.0" y="-55.73584905660378" type="curve" smooth="yes"/>
      <point x="757.6981132075472" y="-22.188679245283026"/>
      <point x="781.9999999999999" y="32.50943396226414"/>
      <point x="781.9999999999999" y="143.1132075471698" type="curve" smooth="yes"/>
      <point x="781.9999999999999" y="340.2452830188679"/>
      <point x="781.9999999999999" y="506.62264150943395"/>
      <point x="781.9999999999999" y="623.5094339622642" type="curve"/>
      <point x="781.9999999999999" y="669.0754716981132"/>
      <point x="762.2075471698113" y="708.4905660377359"/>
      <point x="653.6981132075471" y="708.4905660377359" type="curve" smooth="yes"/>
      <point x="593.2075471698113" y="708.4905660377359"/>
      <point x="514.2075471698114" y="704.2452830188679"/>
      <point x="485.5849056603774" y="700.0" type="curve"/>
      <point x="481.8867924528302" y="687.5094339622642"/>
      <point x="480.0377358490566" y="667.0754716981132"/>
      <point x="480.0377358490566" y="644.0943396226414" type="curve" smooth="yes"/>
      <point x="480.0377358490566" y="585.188679245283"/>
      <point x="495.13207547169816" y="556.6037735849056"/>
      <point x="529.9245283018868" y="556.6037735849056" type="curve" smooth="yes"/>
      <point x="566.9245283018868" y="556.6037735849056"/>
      <point x="617.6037735849056" y="570.188679245283"/>
      <point x="644.8301886792453" y="597.3584905660377" type="curve"/>
      <point x="610.7735849056604" y="599.4716981132076" type="line"/>
      <point x="663.6415094339623" y="571.2264150943396" type="line"/>
      <point x="638.6037735849056" y="614.622641509434" type="line"/>
      <point x="638.6037735849056" y="464.622641509434"/>
      <point x="638.6037735849056" y="325.566037735849"/>
      <point x="638.6037735849056" y="154.88679245283018" type="curve" smooth="yes"/>
      <point x="638.6037735849056" y="20.037735849056602"/>
      <point x="599.1886792452831" y="-49.84905660377359"/>
    </contour>
  </outline>
</glyph>
<glyph name="dotlessj" format="2">
  <advance width="350.0"/>
  <unicode hex="0237"/>
  <anchor x="208.86792452830187" y="548.8867924528302" name="top"/>
  <outline>
    <contour>
      <point x="140.56603773584908" y="547.8867924528302" type="curve" smooth="yes"/>
      <point x="111.64150943396226" y="547.8867924528302"/>
      <point x="71.52830188679246" y="545.2830188679245"/>
      <point x="38.56603773584906" y="541.2830188679245" type="curve"/>
      <point x="34.86792452830189" y="527.7924528301887"/>
      <point x="33.01886792452831" y="509.7547169811321"/>
      <point x="33.01886792452831" y="489.0188679245283" type="curve" smooth="yes"/>
      <point x="33.01886792452831" y="436.45283018867923"/>
      <point x="46.9622641509434" y="406.37735849056605"/>
      <point x="73.84905660377359" y="406.37735849056605" type="curve" smooth="yes"/>
      <point x="92.75471698113208" y="406.37735849056605"/>
      <point x="112.58490566037737" y="411.8301886792453"/>
      <point x="134.56603773584908" y="421.7735849056604" type="curve"/>
      <point x="140.56603773584908" y="417.9245283018868" type="line"/>
      <point x="140.56603773584908" y="277.18867924528297"/>
      <point x="140.56603773584908" y="185.60377358490564"/>
      <point x="140.56603773584908" y="44.86792452830189" type="curve" smooth="yes"/>
      <point x="140.56603773584908" y="3.490566037735844"/>
      <point x="139.20754716981133" y="-30.71698113207548"/>
      <point x="131.13207547169813" y="-59.22641509433964" type="curve"/>
      <point x="121.62264150943396" y="-63.03773584905662"/>
      <point x="111.50943396226415" y="-65.09433962264153"/>
      <point x="97.54716981132076" y="-65.09433962264153" type="curve" smooth="yes"/>
      <point x="66.79245283018868" y="-65.09433962264153"/>
      <point x="45.698113207547166" y="-60.792452830188694"/>
      <point x="16.452830188679247" y="-47.18867924528304" type="curve"/>
      <point x="10.603773584905662" y="-47.18867924528304" type="line"/>
      <point x="7.603773584905662" y="-58.28301886792454"/>
      <point x="6.603773584905662" y="-69.52830188679248"/>
      <point x="6.603773584905662" y="-82.9245283018868" type="curve" smooth="yes"/>
      <point x="6.603773584905662" y="-119.54716981132076"/>
      <point x="17.245283018867923" y="-159.41509433962264"/>
      <point x="34.58490566037736" y="-176.75471698113208" type="curve" smooth="yes"/>
      <point x="52.83018867924528" y="-195.0"/>
      <point x="74.73584905660377" y="-200.0"/>
      <point x="106.98113207547169" y="-200.0" type="curve" smooth="yes"/>
      <point x="202.69811320754718" y="-200.0"/>
      <point x="275.47169811320754" y="-99.32075471698113"/>
      <point x="275.47169811320754" y="-1.339622641509429" type="curve" smooth="yes"/>
      <point x="275.47169811320754" y="204.03773584905662"/>
      <point x="275.47169811320754" y="320.35849056603774"/>
      <point x="275.47169811320754" y="485.8301886792452" type="curve" smooth="yes"/>
      <point x="275.47169811320754" y="525.9056603773586"/>
      <point x="231.54716981132074" y="547.8867924528302"/>
    </contour>
  </outline>
</glyph>
<glyph name="macroncomb" format="2">
  <unicode hex="0304"/>
  <anchor x="0.0" y="546.8867924528302" name="_top"/>
  <anchor x="0.0" y="720.8490566037736" name="top"/>
  <outline>
    <contour>
      <point x="-202.73584905660377" y="731.3584905660377" type="line"/>
      <point x="-202.73584905660377" y="725.8113207547169"/>
      <point x="-202.73584905660377" y="720.1132075471698"/>
      <point x="-202.73584905660377" y="713.7169811320755" type="curve" smooth="yes"/>
      <point x="-202.73584905660377" y="645.0188679245283"/>
      <point x="-181.65408805030944" y="621.9245283018868"/>
      <point x="-75.30188679245286" y="621.9245283018868" type="curve" smooth="yes"/>
      <point x="196.7924528301887" y="621.9245283018868" type="line"/>
      <point x="199.33962264150944" y="634.2641509433963"/>
      <point x="202.73584905660377" y="651.8490566037735"/>
      <point x="202.73584905660377" y="668.433962264151" type="curve" smooth="yes"/>
      <point x="202.73584905660377" y="714.2075471698113"/>
      <point x="187.54716981132077" y="731.3584905660377"/>
      <point x="137.28301886792454" y="731.3584905660377" type="curve" smooth="yes"/>
    </contour>
  </outline>
</glyph>
<glyph name="thai:baht" format="2">
  <advance width="600.0"/>
  <unicode hex="0E3F"/>
  <outline>
    <contour>
      <point x="387.0943396226415" y="793.811320754717" type="curve" smooth="yes"/>
      <point x="387.0943396226415" y="835.9433962264151"/>
      <point x="364.35849056603774" y="851.9811320754717"/>
      <point x="311.9433962264151" y="851.9811320754717" type="curve" smooth="yes"/>
      <point x="284.50943396226415" y="851.9811320754717"/>
      <point x="263.62264150943395" y="847.433962264151"/>
      <point x="241.64150943396226" y="840.3396226415094" type="curve"/>
      <point x="246.33962264150944" y="811.8490566037736"/>
      <point x="248.18867924528303" y="787.3018867924528"/>
      <point x="248.18867924528303" y="754.9622641509435" type="curve" smooth="yes"/>
      <point x="248.18867924528303" y="716.6792452830189"/>
      <point x="245.33962264150944" y="677.4905660377359"/>
      <point x="239.64150943396226" y="632.3584905660377" type="curve"/>
      <point x="326.33962264150944" y="632.3584905660377" type="line"/>
      <point x="360.1132075471698" y="685.188679245283"/>
      <point x="387.0943396226415" y="749.2264150943397"/>
    </contour>
    <contour>
      <point x="197.15094339622644" y="-106.88679245283019" type="curve" smooth="yes"/>
      <point x="197.15094339622644" y="-148.71698113207546"/>
      <point x="222.03773584905662" y="-167.45283018867923"/>
      <point x="270.7547169811321" y="-167.45283018867923" type="curve" smooth="yes"/>
      <point x="302.9811320754717" y="-167.45283018867923"/>
      <point x="323.566037735849" y="-163.0566037735849"/>
      <point x="341.3018867924528" y="-158.66037735849056" type="curve"/>
      <point x="336.05660377358487" y="-131.0754716981132"/>
      <point x="334.20754716981133" y="-105.1320754716981"/>
      <point x="334.20754716981133" y="-75.49056603773585" type="curve" smooth="yes"/>
      <point x="334.20754716981133" y="-35.0"/>
      <point x="335.35849056603774" y="8.679245283018872"/>
      <point x="342.05660377358487" y="65.75471698113208" type="curve"/>
      <point x="254.6603773584906" y="65.75471698113208" type="line"/>
      <point x="209.24528301886792" y="-17.60377358490566"/>
      <point x="197.15094339622644" y="-68.69811320754717"/>
    </contour>
    <contour>
      <point x="275.8490566037736" y="-10.0" type="curve"/>
      <point x="415.1509433962264" y="-10.0"/>
      <point x="529.0943396226414" y="63.283018867924525"/>
      <point x="529.0943396226414" y="194.22641509433961" type="curve" smooth="yes"/>
      <point x="529.0943396226414" y="200.9433962264151" type="line" smooth="yes"/>
      <point x="529.0943396226414" y="249.66037735849056"/>
      <point x="494.4339622641509" y="296.50943396226415"/>
      <point x="441.90566037735846" y="320.0" type="curve"/>
      <point x="441.90566037735846" y="338.24528301886795" type="line"/>
      <point x="255.4716981132075" y="354.9622641509434" type="line"/>
      <point x="255.4716981132075" y="325.6792452830189" type="line"/>
      <point x="286.3018867924528" y="325.6792452830189" type="line"/>
      <point x="371.5849056603774" y="299.1509433962264"/>
      <point x="394.188679245283" y="266.0377358490566"/>
      <point x="394.188679245283" y="222.41509433962264" type="curve" smooth="yes"/>
      <point x="394.188679245283" y="213.50943396226413" type="line" smooth="yes"/>
      <point x="394.188679245283" y="147.32075471698113"/>
      <point x="343.64150943396226" y="117.26415094339622"/>
      <point x="269.9056603773585" y="117.26415094339622" type="curve" smooth="yes"/>
      <point x="249.30188679245282" y="117.26415094339622"/>
      <point x="235.43396226415092" y="119.32075471698111"/>
      <point x="222.1698113207547" y="124.67924528301887" type="curve"/>
      <point x="222.1698113207547" y="242.90566037735852"/>
      <point x="222.1698113207547" y="360.3207547169811"/>
      <point x="222.1698113207547" y="476.43396226415103" type="curve" smooth="yes"/>
      <point x="222.1698113207547" y="520.811320754717"/>
      <point x="211.67924528301884" y="554.0943396226415"/>
      <point x="189.49056603773582" y="575.0377358490566" type="curve"/>
      <point x="200.09433962264148" y="606.7358490566038" type="line"/>
      <point x="78.77358490566039" y="606.7358490566038" type="line"/>
      <point x="78.77358490566039" y="439.6792452830189"/>
      <point x="78.77358490566039" y="280.7358490566038"/>
      <point x="78.77358490566039" y="115.188679245283" type="curve"/>
      <point x="78.77358490566039" y="89.15094339622641"/>
      <point x="88.56603773584906" y="68.41509433962264"/>
      <point x="109.30188679245283" y="47.679245283018865" type="curve" smooth="yes"/>
      <point x="140.9811320754717" y="16.0"/>
      <point x="200.66037735849056" y="-10.0"/>
    </contour>
    <contour>
      <point x="25.377358490566042" y="700.0" type="curve"/>
      <point x="21.981132075471706" y="685.1132075471698"/>
      <point x="20.283018867924536" y="670.0754716981132"/>
      <point x="20.283018867924536" y="650.0943396226415" type="curve" smooth="yes"/>
      <point x="20.283018867924536" y="591.9811320754718"/>
      <point x="32.37735849056604" y="565.0943396226415"/>
      <point x="61.716981132075475" y="565.0943396226415" type="curve" smooth="yes"/>
      <point x="82.41509433962266" y="565.0943396226415"/>
      <point x="167.16981132075472" y="585.0943396226415"/>
      <point x="276.41509433962267" y="585.0943396226415" type="curve" smooth="yes"/>
      <point x="324.8301886792453" y="585.0943396226415"/>
      <point x="363.433962264151" y="580.6415094339623"/>
      <point x="391.7547169811321" y="570.2264150943396" type="curve" smooth="yes"/>
      <point x="399.47169811320754" y="553.4150943396227"/>
      <point x="402.8301886792453" y="536.245283018868"/>
      <point x="402.8301886792453" y="512.1698113207548" type="curve" smooth="yes"/>
      <point x="402.8301886792453" y="503.5660377358491" type="line" smooth="yes"/>
      <point x="402.8301886792453" y="421.6792452830189"/>
      <point x="346.2830188679245" y="381.3962264150943"/>
      <point x="256.79245283018867" y="381.3962264150943" type="curve" smooth="yes"/>
      <point x="228.3396226415094" y="381.3962264150943"/>
      <point x="219.67924528301884" y="383.84905660377353"/>
      <point x="201.67924528301884" y="394.5471698113207" type="curve"/>
      <point x="201.67924528301884" y="296.0" type="line" smooth="yes"/>
      <point x="228.1698113207547" y="297.0566037735849" type="line"/>
      <point x="240.1698113207547" y="285.0566037735849"/>
      <point x="256.62264150943395" y="279.9056603773585"/>
      <point x="280.3207547169811" y="279.9056603773585" type="curve" smooth="yes"/>
      <point x="424.6981132075471" y="279.9056603773585"/>
      <point x="537.7358490566038" y="371.188679245283"/>
      <point x="537.7358490566038" y="502.96226415094344" type="curve" smooth="yes"/>
      <point x="537.7358490566038" y="512.2264150943397" type="line" smooth="yes"/>
      <point x="537.7358490566038" y="605.8490566037736"/>
      <point x="455.5471698113207" y="720.0"/>
      <point x="295.1509433962264" y="720.0" type="curve" smooth="yes"/>
      <point x="208.77358490566039" y="720.0"/>
      <point x="113.39622641509436" y="714.4528301886793"/>
    </contour>
  </outline>
</glyph>
<glyph name="ellipsis" format="2">
  <advance width="800.0"/>
  <unicode hex="2026"/>
  <outline>
    <contour>
      <point x="224.75471698113208" y="-3.6415094339622627" type="curve"/>
      <point x="224.75471698113208" y="78.56603773584905" type="line" smooth="yes"/>
      <point x="224.75471698113208" y="169.45283018867923"/>
      <point x="203.71698113207546" y="189.54716981132074"/>
      <point x="138.35849056603774" y="189.54716981132074" type="curve" smooth="yes"/>
      <point x="109.47169811320755" y="189.54716981132074"/>
      <point x="87.8301886792453" y="183.8490566037736"/>
      <point x="66.03773584905662" y="176.1509433962264" type="curve"/>
      <point x="66.03773584905662" y="84.41509433962264" type="line" smooth="yes"/>
      <point x="66.03773584905662" y="6.603773584905661"/>
      <point x="98.41509433962266" y="-10.094339622641508"/>
      <point x="152.49056603773585" y="-10.094339622641508" type="curve" smooth="yes"/>
      <point x="179.37735849056605" y="-10.094339622641508"/>
      <point x="202.56603773584905" y="-7.094339622641509"/>
    </contour>
    <contour>
      <point x="479.3584905660377" y="-3.6415094339622627" type="curve"/>
      <point x="479.3584905660377" y="78.56603773584905" type="line" smooth="yes"/>
      <point x="479.3584905660377" y="169.45283018867923"/>
      <point x="456.62264150943395" y="189.54716981132074"/>
      <point x="392.9622641509434" y="189.54716981132074" type="curve" smooth="yes"/>
      <point x="364.0754716981132" y="189.54716981132074"/>
      <point x="342.433962264151" y="183.8490566037736"/>
      <point x="320.6415094339623" y="176.1509433962264" type="curve"/>
      <point x="320.6415094339623" y="84.41509433962264" type="line" smooth="yes"/>
      <point x="320.6415094339623" y="6.603773584905661"/>
      <point x="353.0188679245283" y="-10.094339622641508"/>
      <point x="407.09433962264154" y="-10.094339622641508" type="curve" smooth="yes"/>
      <point x="433.9811320754717" y="-10.094339622641508"/>
      <point x="457.1698113207547" y="-7.094339622641509"/>
    </contour>
    <contour>
      <point x="733.9622641509434" y="-3.6415094339622627" type="curve"/>
      <point x="733.9622641509434" y="78.56603773584905" type="line" smooth="yes"/>
      <point x="733.9622641509434" y="169.45283018867923"/>
      <point x="712.0754716981132" y="189.54716981132074"/>
      <point x="648.4150943396227" y="189.54716981132074" type="curve" smooth="yes"/>
      <point x="619.5283018867924" y="189.54716981132074"/>
      <point x="597.8867924528303" y="183.8490566037736"/>
      <point x="576.0943396226415" y="176.1509433962264" type="curve"/>
      <point x="576.0943396226415" y="84.41509433962264" type="line" smooth="yes"/>
      <point x="576.0943396226415" y="6.603773584905661"/>
      <point x="609.3207547169811" y="-10.094339622641508"/>
      <point x="661.6981132075472" y="-10.094339622641508" type="curve" smooth="yes"/>
      <point x="688.5849056603773" y="-10.094339622641508"/>
      <point x="711.7735849056604" y="-7.094339622641509"/>
    </contour>
  </outline>
</glyph>
<glyph name="litre" format="2">
  <advance width="600.0"/>
  <unicode hex="2113"/>
  <outline>
    <contour>
      <point x="526.8301886792452" y="549.1698113207547" type="curve" smooth="yes"/>
      <point x="526.8301886792452" y="557.5283018867925" type="line" smooth="yes"/>
      <point x="526.8301886792452" y="686.0943396226415"/>
      <point x="449.1132075471698" y="768.4905660377359"/>
      <point x="327.22641509433964" y="768.4905660377359" type="curve" smooth="yes"/>
      <point x="191.81132075471697" y="768.4905660377359"/>
      <point x="115.56603773584908" y="661.5283018867924"/>
      <point x="115.56603773584908" y="565.5849056603773" type="curve" smooth="yes"/>
      <point x="115.56603773584908" y="428.94339622641513"/>
      <point x="115.56603773584908" y="293.1509433962264"/>
      <point x="115.56603773584908" y="156.50943396226415" type="curve" smooth="yes"/>
      <point x="115.56603773584908" y="77.83018867924528"/>
      <point x="184.58490566037736" y="-10.0"/>
      <point x="316.8301886792453" y="-10.0" type="curve" smooth="yes"/>
      <point x="323.52830188679246" y="-10.0" type="line" smooth="yes"/>
      <point x="450.1320754716981" y="-10.0"/>
      <point x="494.24528301886795" y="35.94339622641509"/>
      <point x="494.24528301886795" y="104.0188679245283" type="curve" smooth="yes"/>
      <point x="494.24528301886795" y="130.1509433962264"/>
      <point x="492.39622641509436" y="143.24528301886792"/>
      <point x="485.1509433962264" y="169.22641509433961" type="curve"/>
      <point x="479.15094339622647" y="169.22641509433961" type="line"/>
      <point x="428.7169811320755" y="135.71698113207546"/>
      <point x="387.01886792452825" y="120.66037735849055"/>
      <point x="324.22641509433964" y="120.66037735849055" type="curve" smooth="yes"/>
      <point x="297.566037735849" y="120.66037735849055"/>
      <point x="276.4528301886793" y="124.96226415094337"/>
      <point x="258.9433962264151" y="137.01886792452828" type="curve"/>
      <point x="251.77358490566039" y="157.2264150943396"/>
      <point x="250.47169811320754" y="179.58490566037733"/>
      <point x="250.47169811320754" y="209.2641509433962" type="curve" smooth="yes"/>
      <point x="250.47169811320754" y="320.6792452830189"/>
      <point x="250.47169811320754" y="431.3962264150943"/>
      <point x="250.47169811320754" y="542.811320754717" type="curve" smooth="yes"/>
      <point x="250.47169811320754" y="578.7924528301887"/>
      <point x="256.433962264151" y="607.8113207547169"/>
      <point x="274.2452830188679" y="630.7169811320755" type="curve"/>
      <point x="286.60377358490564" y="636.0754716981132"/>
      <point x="299.8679245283019" y="638.679245283019"/>
      <point x="315.88679245283015" y="638.679245283019" type="curve" smooth="yes"/>
      <point x="374.1132075471698" y="638.679245283019"/>
      <point x="391.9245283018868" y="607.4528301886793"/>
      <point x="391.9245283018868" y="554.0754716981132" type="curve" smooth="yes"/>
      <point x="391.9245283018868" y="546.0188679245283" type="line" smooth="yes"/>
      <point x="391.9245283018868" y="442.7358490566038"/>
      <point x="331.92452830188677" y="383.01886792452825"/>
      <point x="48.584905660377366" y="312.9811320754717" type="curve"/>
      <point x="42.33962264150944" y="290.6981132075471"/>
      <point x="39.64150943396227" y="272.811320754717"/>
      <point x="39.64150943396227" y="246.9811320754717" type="curve" smooth="yes"/>
      <point x="39.64150943396227" y="203.50943396226415"/>
      <point x="55.132075471698116" y="182.22641509433961"/>
      <point x="76.01886792452831" y="182.22641509433961" type="curve" smooth="yes"/>
      <point x="86.8679245283019" y="182.22641509433961"/>
      <point x="98.11320754716982" y="183.22641509433961"/>
      <point x="156.60377358490567" y="202.28301886792454" type="curve" smooth="yes"/>
      <point x="452.0" y="299.7924528301887"/>
      <point x="526.8301886792452" y="399.3207547169812"/>
    </contour>
  </outline>
</glyph>
<glyph name="arrowNW" format="2">
  <advance width="600.0"/>
  <unicode hex="2196"/>
  <outline>
    <contour>
      <point x="254.50943396226413" y="465.9811320754717" type="curve"/>
      <point x="245.71698113207546" y="463.13207547169816"/>
      <point x="235.92452830188677" y="457.58490566037733"/>
      <point x="227.98113207547166" y="447.9433962264151" type="curve" smooth="yes"/>
      <point x="210.33962264150944" y="427.75471698113205"/>
      <point x="211.03773584905662" y="407.7169811320755"/>
      <point x="224.43396226415092" y="382.9811320754717" type="curve" smooth="yes"/>
      <point x="256.62264150943395" y="328.0566037735849"/>
      <point x="290.01886792452825" y="288.1698113207548"/>
      <point x="340.7358490566038" y="236.0" type="curve" smooth="yes"/>
      <point x="398.8301886792453" y="176.75471698113208"/>
      <point x="456.9245283018868" y="115.11320754716981"/>
      <point x="495.49056603773585" y="60.11320754716981" type="curve"/>
      <point x="516.2264150943396" y="65.66037735849056"/>
      <point x="539.7547169811321" y="77.15094339622642"/>
      <point x="555.9433962264151" y="90.79245283018868" type="curve" smooth="yes"/>
      <point x="594.2641509433962" y="124.01886792452828"/>
      <point x="593.7169811320755" y="162.79245283018867"/>
      <point x="562.4905660377359" y="200.81132075471697" type="curve" smooth="yes"/>
      <point x="528.9245283018868" y="242.3207547169811"/>
      <point x="485.1698113207547" y="286.2264150943396"/>
      <point x="435.47169811320754" y="331.9811320754717" type="curve" smooth="yes"/>
      <point x="382.60377358490564" y="382.0566037735849"/>
      <point x="335.566037735849" y="416.4528301886793"/>
    </contour>
    <contour>
      <point x="74.81132075471699" y="627.3584905660377" type="curve"/>
      <point x="68.35849056603774" y="620.9056603773586" type="line" smooth="yes"/>
      <point x="36.62264150943396" y="589.1698113207547"/>
      <point x="24.132075471698123" y="563.4905660377358"/>
      <point x="23.13207547169812" y="506.13207547169816" type="curve" smooth="yes"/>
      <point x="20.773584905660382" y="404.1320754716981"/>
      <point x="40.56603773584906" y="294.0943396226415"/>
      <point x="66.90566037735849" y="218.0754716981132" type="curve" smooth="yes"/>
      <point x="88.33962264150944" y="159.69811320754718"/>
      <point x="104.98113207547169" y="144.69811320754718"/>
      <point x="129.32075471698113" y="143.0" type="curve" smooth="yes"/>
      <point x="154.2075471698113" y="141.30188679245282"/>
      <point x="187.52830188679243" y="165.2830188679245"/>
      <point x="215.66037735849056" y="213.69811320754715" type="curve"/>
      <point x="166.52830188679246" y="309.2830188679245"/>
      <point x="138.0943396226415" y="423.1698113207547"/>
      <point x="149.2452830188679" y="545.622641509434" type="curve"/>
      <point x="126.09433962264151" y="495.98113207547175" type="line"/>
      <point x="173.8490566037736" y="543.377358490566" type="line"/>
      <point x="123.15094339622641" y="518.6792452830189" type="line"/>
      <point x="233.33962264150944" y="530.9811320754717"/>
      <point x="356.9622641509434" y="508.8867924528302"/>
      <point x="464.24528301886795" y="458.188679245283" type="curve"/>
      <point x="506.7169811320755" y="486.7169811320755"/>
      <point x="530.8490566037736" y="521.0377358490566"/>
      <point x="532.5471698113208" y="549.1698113207547" type="curve" smooth="yes"/>
      <point x="534.245283018868" y="572.811320754717"/>
      <point x="521.6981132075472" y="590.4528301886793"/>
      <point x="458.0754716981132" y="608.245283018868" type="curve" smooth="yes"/>
      <point x="344.94339622641513" y="640.4905660377358"/>
      <point x="193.69811320754718" y="654.8490566037735"/>
    </contour>
  </outline>
</glyph>
<glyph name="heartwhite" format="2">
  <advance width="600.0"/>
  <unicode hex="2661"/>
  <outline>
    <contour>
      <point x="165.0" y="646.0" type="curve" smooth="yes"/>
      <point x="75.0" y="646.0"/>
      <point x="15.0" y="569.0"/>
      <point x="15.0" y="456.0" type="curve" smooth="yes"/>
      <point x="15.0" y="439.0" type="line" smooth="yes"/>
      <point x="15.0" y="314.0"/>
      <point x="105.0" y="185.0"/>
      <point x="223.0" y="117.0" type="curve" smooth="yes"/>
      <point x="265.0" y="93.0"/>
      <point x="282.0" y="85.0"/>
      <point x="303.0" y="85.0" type="curve" smooth="yes"/>
      <point x="316.0" y="85.0"/>
      <point x="324.0" y="86.0"/>
      <point x="338.0" y="89.0" type="curve"/>
      <point x="450.0" y="150.0"/>
      <point x="585.0" y="290.0"/>
      <point x="585.0" y="443.0" type="curve" smooth="yes"/>
      <point x="585.0" y="456.0" type="line" smooth="yes"/>
      <point x="585.0" y="584.0"/>
      <point x="517.0" y="646.0"/>
      <point x="437.0" y="646.0" type="curve" smooth="yes"/>
      <point x="357.0" y="646.0"/>
      <point x="313.0" y="593.0"/>
      <point x="296.0" y="502.0" type="curve"/>
      <point x="308.0" y="502.0" type="line"/>
      <point x="292.0" y="594.0"/>
      <point x="243.0" y="646.0"/>
    </contour>
    <contour>
      <point x="325.0" y="111.0" type="line"/>
      <point x="174.0" y="180.0"/>
      <point x="63.0" y="306.0"/>
      <point x="63.0" y="444.0" type="curve" smooth="yes"/>
      <point x="63.0" y="456.0" type="line" smooth="yes"/>
      <point x="63.0" y="541.0"/>
      <point x="98.0" y="599.0"/>
      <point x="164.0" y="599.0" type="curve" smooth="yes"/>
      <point x="215.0" y="599.0"/>
      <point x="246.0" y="571.0"/>
      <point x="271.0" y="503.0" type="curve" smooth="yes"/>
      <point x="278.0" y="484.0"/>
      <point x="283.0" y="473.0"/>
      <point x="297.0" y="473.0" type="curve" smooth="yes"/>
      <point x="324.0" y="473.0" type="line"/>
      <point x="344.0" y="559.0"/>
      <point x="379.0" y="599.0"/>
      <point x="433.0" y="599.0" type="curve" smooth="yes"/>
      <point x="498.0" y="599.0"/>
      <point x="537.0" y="552.0"/>
      <point x="537.0" y="454.0" type="curve" smooth="yes"/>
      <point x="537.0" y="442.0" type="line" smooth="yes"/>
      <point x="537.0" y="298.0"/>
      <point x="404.0" y="165.0"/>
      <point x="280.0" y="111.0" type="curve"/>
      <point x="345.0" y="125.0" type="line"/>
      <point x="271.0" y="125.0" type="line"/>
    </contour>
  </outline>
</glyph>
<glyph name="L.sans" format="2">
  <advance width="550.0"/>
  <anchor x="134.18867924528303" y="711.0" name="top"/>
  <anchor x="285.22641509433964" y="-1.0" name="bottom"/>
  <anchor x="432.8679245283019" y="463.6792452830189" name="dot"/>
  <anchor x="443.0566037735849" y="604.2452830188679" name="caronslovak"/>
  <anchor x="133.49056603773585" y="358.52830188679246" name="slash"/>
  <outline>
    <contour>
      <point x="150.43396226415095" y="0.0" type="curve" smooth="yes"/>
      <point x="513.3962264150944" y="0.0" type="line"/>
      <point x="515.0943396226415" y="15.339622641509433"/>
      <point x="516.7924528301887" y="29.830188679245282"/>
      <point x="516.7924528301887" y="48.415094339622634" type="curve" smooth="yes"/>
      <point x="516.7924528301887" y="105.07547169811319"/>
      <point x="497.6037735849057" y="134.9056603773585"/>
      <point x="455.58490566037733" y="134.9056603773585" type="curve" smooth="yes"/>
      <point x="205.188679245283" y="134.9056603773585" type="line"/>
      <point x="205.188679245283" y="300.9433962264151"/>
      <point x="205.188679245283" y="475.47169811320754"/>
      <point x="205.188679245283" y="624.5283018867924" type="curve" smooth="yes"/>
      <point x="205.188679245283" y="690.2830188679245"/>
      <point x="184.50943396226413" y="710.0"/>
      <point x="118.79245283018867" y="710.0" type="curve" smooth="yes"/>
      <point x="92.11320754716982" y="710.0"/>
      <point x="70.13207547169812" y="706.4528301886793"/>
      <point x="49.69811320754718" y="701.0566037735849" type="curve"/>
      <point x="58.24528301886794" y="666.9056603773586"/>
      <point x="61.792452830188694" y="633.3207547169811"/>
      <point x="61.792452830188694" y="592.1132075471698" type="curve" smooth="yes"/>
      <point x="61.792452830188694" y="441.7735849056604"/>
      <point x="61.792452830188694" y="291.377358490566"/>
      <point x="61.792452830188694" y="143.0" type="curve" smooth="yes"/>
      <point x="61.792452830188694" y="78.33962264150942"/>
      <point x="89.37735849056605" y="0.0"/>
    </contour>
  </outline>
</glyph>
<glyph name="ampersand_ampersand.code" format="2">
  <advance width="1200.0"/>
  <outline>
    <contour>
      <point x="298.8679245283019" y="383.566037735849" type="curve" smooth="yes"/>
      <point x="277.1509433962264" y="430.64150943396226"/>
      <point x="267.18867924528297" y="475.566037735849"/>
      <point x="267.18867924528297" y="520.1698113207547" type="curve" smooth="yes"/>
      <point x="267.18867924528297" y="528.377358490566"/>
      <point x="268.188679245283" y="540.1886792452831"/>
      <point x="270.49056603773585" y="548.0943396226415" type="curve"/>
      <point x="291.33962264150944" y="563.7735849056603"/>
      <point x="325.0" y="574.9433962264151"/>
      <point x="374.77358490566036" y="574.9433962264151" type="curve" smooth="yes"/>
      <point x="433.9811320754717" y="574.9433962264151"/>
      <point x="487.47169811320754" y="564.5849056603773"/>
      <point x="528.9056603773585" y="538.5849056603774" type="curve"/>
      <point x="534.9056603773585" y="538.5849056603774" type="line"/>
      <point x="540.3018867924528" y="551.5283018867925"/>
      <point x="544.6981132075472" y="570.2641509433963"/>
      <point x="544.6981132075472" y="593.5471698113207" type="curve" smooth="yes"/>
      <point x="544.6981132075472" y="625.1320754716982"/>
      <point x="538.8490566037735" y="651.1698113207547"/>
      <point x="518.6603773584906" y="671.3584905660377" type="curve" smooth="yes"/>
      <point x="495.7169811320755" y="694.3018867924528"/>
      <point x="452.1698113207547" y="710.0"/>
      <point x="382.1320754716981" y="710.0" type="curve" smooth="yes"/>
      <point x="240.45283018867923" y="710.0"/>
      <point x="150.96226415094338" y="623.0754716981132"/>
      <point x="150.96226415094338" y="536.9056603773586" type="curve" smooth="yes"/>
      <point x="150.96226415094338" y="531.3584905660377" type="line" smooth="yes"/>
      <point x="150.96226415094338" y="480.5471698113207"/>
      <point x="170.7169811320755" y="415.64150943396226"/>
      <point x="214.50943396226415" y="334.6037735849057" type="curve" smooth="yes"/>
      <point x="260.0188679245283" y="252.9811320754717"/>
      <point x="319.0377358490566" y="165.71698113207546"/>
      <point x="383.2452830188679" y="101.35849056603772" type="curve" smooth="yes"/>
      <point x="469.7547169811321" y="14.849056603773583"/>
      <point x="522.5094339622642" y="-8.30188679245283"/>
      <point x="580.6415094339623" y="-8.30188679245283" type="curve" smooth="yes"/>
      <point x="617.0754716981132" y="-8.30188679245283"/>
      <point x="637.4150943396227" y="-0.3584905660377382"/>
      <point x="653.5094339622641" y="15.132075471698112" type="curve" smooth="yes"/>
      <point x="669.7547169811321" y="30.622641509433958"/>
      <point x="681.8490566037735" y="58.60377358490565"/>
      <point x="681.8490566037735" y="98.22641509433961" type="curve" smooth="yes"/>
      <point x="681.8490566037735" y="122.66037735849056"/>
      <point x="679.0" y="144.3962264150943"/>
      <point x="673.4528301886792" y="160.188679245283" type="curve"/>
      <point x="667.4528301886793" y="160.188679245283" type="line"/>
      <point x="638.9245283018869" y="140.2452830188679"/>
      <point x="610.3396226415094" y="133.3962264150943"/>
      <point x="573.6037735849056" y="133.3962264150943" type="curve" smooth="yes"/>
      <point x="518.4716981132076" y="133.3962264150943"/>
      <point x="471.7358490566038" y="157.03773584905656"/>
      <point x="424.03773584905656" y="202.0377358490566" type="curve" smooth="yes"/>
      <point x="363.0188679245283" y="259.35849056603774"/>
      <point x="328.4339622641509" y="319.9433962264151"/>
    </contour>
    <contour>
      <point x="879.4716981132076" y="88.62264150943395" type="curve" smooth="yes"/>
      <point x="944.7547169811321" y="13.150943396226415"/>
      <point x="996.0943396226415" y="-11.698113207547168"/>
      <point x="1046.6792452830189" y="-11.698113207547168" type="curve" smooth="yes"/>
      <point x="1066.377358490566" y="-11.698113207547168"/>
      <point x="1084.3207547169811" y="-4.30188679245283"/>
      <point x="1094.867924528302" y="5.943396226415094" type="curve" smooth="yes"/>
      <point x="1113.9056603773586" y="24.679245283018865"/>
      <point x="1122.6037735849056" y="47.56603773584905"/>
      <point x="1122.6037735849056" y="83.79245283018867" type="curve" smooth="yes"/>
      <point x="1122.6037735849056" y="108.2264150943396"/>
      <point x="1119.9056603773586" y="130.1132075471698"/>
      <point x="1114.5094339622642" y="145.75471698113205" type="curve"/>
      <point x="1108.5094339622642" y="145.75471698113205" type="line"/>
      <point x="1096.9622641509434" y="137.69811320754712"/>
      <point x="1081.7169811320755" y="131.69811320754715"/>
      <point x="1053.2264150943397" y="131.69811320754715" type="curve" smooth="yes"/>
      <point x="1014.7924528301887" y="131.69811320754715"/>
      <point x="967.1132075471698" y="147.69811320754715"/>
      <point x="926.2075471698113" y="188.45283018867923" type="curve" smooth="yes"/>
      <point x="874.5283018867925" y="238.98113207547163"/>
      <point x="823.811320754717" y="317.39622641509436"/>
      <point x="800.188679245283" y="382.71698113207543" type="curve" smooth="yes"/>
      <point x="781.8679245283018" y="431.49056603773585"/>
      <point x="771.0566037735849" y="479.811320754717"/>
      <point x="771.0566037735849" y="508.2830188679245" type="curve" smooth="yes"/>
      <point x="771.0566037735849" y="529.2264150943396"/>
      <point x="772.0566037735849" y="541.8867924528303"/>
      <point x="775.2075471698113" y="553.1886792452831" type="curve"/>
      <point x="794.3584905660377" y="568.0188679245283"/>
      <point x="833.9622641509434" y="576.6415094339623"/>
      <point x="876.9433962264151" y="576.6415094339623" type="curve" smooth="yes"/>
      <point x="932.754716981132" y="576.6415094339623"/>
      <point x="979.4528301886793" y="563.7358490566038"/>
      <point x="1018.3396226415094" y="538.5849056603774" type="curve"/>
      <point x="1024.3396226415095" y="538.5849056603774" type="line"/>
      <point x="1031.433962264151" y="552.377358490566"/>
      <point x="1035.8301886792453" y="574.5094339622642"/>
      <point x="1035.8301886792453" y="596.9433962264152" type="curve" smooth="yes"/>
      <point x="1035.8301886792453" y="630.2264150943396"/>
      <point x="1027.4339622641508" y="654.566037735849"/>
      <point x="1008.0943396226415" y="673.9056603773585" type="curve" smooth="yes"/>
      <point x="985.1509433962264" y="696.8490566037735"/>
      <point x="947.5471698113208" y="710.0"/>
      <point x="876.6603773584906" y="710.0" type="curve" smooth="yes"/>
      <point x="743.4716981132076" y="710.0"/>
      <point x="649.7358490566037" y="611.1886792452831"/>
      <point x="649.7358490566037" y="529.2641509433963" type="curve" smooth="yes"/>
      <point x="649.7358490566037" y="523.7169811320755" type="line" smooth="yes"/>
      <point x="649.7358490566037" y="471.20754716981133"/>
      <point x="663.5471698113207" y="408.8490566037736"/>
      <point x="701.3962264150944" y="340.54716981132077" type="curve" smooth="yes"/>
      <point x="749.4528301886793" y="253.83018867924528"/>
      <point x="813.566037735849" y="164.8679245283019"/>
    </contour>
    <contour>
      <point x="243.96226415094338" y="-9.150943396226415" type="curve" smooth="yes"/>
      <point x="325.20754716981133" y="-9.150943396226415"/>
      <point x="370.2641509433962" y="28.735849056603772"/>
      <point x="393.37735849056605" y="86.07547169811319" type="curve"/>
      <point x="438.0566037735849" y="86.07547169811319" type="line"/>
      <point x="380.6792452830189" y="159.79245283018867" type="line"/>
      <point x="350.8679245283019" y="122.92452830188678"/>
      <point x="324.4528301886793" y="110.1698113207547"/>
      <point x="275.52830188679246" y="110.1698113207547" type="curve" smooth="yes"/>
      <point x="227.2452830188679" y="110.1698113207547"/>
      <point x="200.77358490566036" y="148.58490566037736"/>
      <point x="200.77358490566036" y="197.81132075471697" type="curve" smooth="yes"/>
      <point x="200.77358490566036" y="200.81132075471697" type="line" smooth="yes"/>
      <point x="200.77358490566036" y="255.79245283018867"/>
      <point x="236.24528301886792" y="281.50943396226415"/>
      <point x="274.58490566037733" y="284.377358490566" type="curve"/>
      <point x="210.16981132075472" y="371.8301886792453" type="line"/>
      <point x="208.81132075471697" y="336.1509433962264" type="line"/>
      <point x="135.75471698113208" y="326.8867924528302"/>
      <point x="75.20754716981132" y="272.433962264151"/>
      <point x="75.20754716981132" y="172.3396226415094" type="curve" smooth="yes"/>
      <point x="75.20754716981132" y="167.64150943396226" type="line" smooth="yes"/>
      <point x="75.20754716981132" y="63.0"/>
      <point x="145.9433962264151" y="-9.150943396226415"/>
    </contour>
    <contour>
      <point x="440.0566037735849" y="166.99999999999997" type="line"/>
      <point x="456.188679245283" y="261.77358490566036"/>
      <point x="496.64150943396226" y="300.45283018867923"/>
      <point x="552.566037735849" y="300.45283018867923" type="curve" smooth="yes"/>
      <point x="628.8490566037736" y="300.45283018867923"/>
      <point x="694.8301886792453" y="283.9811320754717"/>
      <point x="769.1698113207548" y="246.05660377358492" type="curve"/>
      <point x="708.6603773584906" y="355.24528301886795" type="line"/>
      <point x="692.6037735849056" y="342.2830188679245" type="line"/>
      <point x="642.8490566037735" y="385.8867924528302"/>
      <point x="581.188679245283" y="415.73584905660374"/>
      <point x="516.6981132075472" y="415.73584905660374" type="curve" smooth="yes"/>
      <point x="511.9433962264151" y="415.73584905660374" type="line" smooth="yes"/>
      <point x="430.62264150943395" y="415.73584905660374"/>
      <point x="397.7169811320755" y="331.3207547169811"/>
      <point x="398.5660377358491" y="234.1132075471698" type="curve"/>
      <point x="370.9622641509434" y="234.1132075471698" type="line"/>
    </contour>
    <contour>
      <point x="1000.811320754717" y="419.6037735849057" type="curve" smooth="yes"/>
      <point x="984.377358490566" y="419.6037735849057"/>
      <point x="972.1886792452831" y="417.9056603773585"/>
      <point x="963.3962264150942" y="415.35849056603774" type="curve"/>
      <point x="963.3962264150942" y="405.20754716981133"/>
      <point x="963.3962264150942" y="395.811320754717"/>
      <point x="963.3962264150942" y="383.9622641509434" type="curve" smooth="yes"/>
      <point x="963.3962264150942" y="309.9433962264151"/>
      <point x="940.1509433962264" y="259.0754716981132"/>
      <point x="889.9056603773586" y="203.96226415094338" type="curve"/>
      <point x="943.433962264151" y="138.1320754716981" type="line"/>
      <point x="943.433962264151" y="179.77358490566036" type="line"/>
      <point x="1033.245283018868" y="213.37735849056605"/>
      <point x="1100.4528301886794" y="274.7358490566038"/>
      <point x="1100.4528301886794" y="339.50943396226415" type="curve" smooth="yes"/>
      <point x="1100.4528301886794" y="348.6037735849057" type="line" smooth="yes"/>
      <point x="1100.4528301886794" y="394.9245283018868"/>
      <point x="1059.433962264151" y="419.6037735849057"/>
    </contour>
  </outline>
</glyph>
<glyph name="ampersand_ampersand_ampersand.code" format="2">
  <advance width="1800.0"/>
  <outline>
    <contour>
      <point x="337.9622641509434" y="383.566037735849" type="curve" smooth="yes"/>
      <point x="316.2452830188679" y="430.64150943396226"/>
      <point x="306.2830188679245" y="475.566037735849"/>
      <point x="306.2830188679245" y="520.1698113207547" type="curve" smooth="yes"/>
      <point x="306.2830188679245" y="528.377358490566"/>
      <point x="307.2830188679245" y="540.1886792452831"/>
      <point x="309.58490566037733" y="548.0943396226415" type="curve"/>
      <point x="330.4339622641509" y="563.7735849056603"/>
      <point x="364.0943396226415" y="574.9433962264151"/>
      <point x="413.8679245283019" y="574.9433962264151" type="curve" smooth="yes"/>
      <point x="473.0754716981132" y="574.9433962264151"/>
      <point x="526.566037735849" y="564.5849056603773"/>
      <point x="568.0" y="538.5849056603774" type="curve"/>
      <point x="574.0" y="538.5849056603774" type="line"/>
      <point x="579.3962264150944" y="551.5283018867925"/>
      <point x="583.7924528301887" y="570.2641509433963"/>
      <point x="583.7924528301887" y="593.5471698113207" type="curve" smooth="yes"/>
      <point x="583.7924528301887" y="625.1320754716982"/>
      <point x="577.9433962264151" y="651.1698113207547"/>
      <point x="557.7547169811321" y="671.3584905660377" type="curve" smooth="yes"/>
      <point x="534.8113207547169" y="694.3018867924528"/>
      <point x="491.26415094339626" y="710.0"/>
      <point x="421.2264150943396" y="710.0" type="curve" smooth="yes"/>
      <point x="279.5471698113207" y="710.0"/>
      <point x="190.0566037735849" y="623.0754716981132"/>
      <point x="190.0566037735849" y="536.9056603773586" type="curve" smooth="yes"/>
      <point x="190.0566037735849" y="531.3584905660377" type="line" smooth="yes"/>
      <point x="190.0566037735849" y="480.5471698113207"/>
      <point x="209.81132075471697" y="415.64150943396226"/>
      <point x="253.60377358490564" y="334.6037735849057" type="curve" smooth="yes"/>
      <point x="299.11320754716985" y="252.9811320754717"/>
      <point x="358.1320754716981" y="165.71698113207546"/>
      <point x="422.33962264150944" y="101.35849056603772" type="curve" smooth="yes"/>
      <point x="508.8490566037736" y="14.849056603773583"/>
      <point x="561.6037735849058" y="-8.30188679245283"/>
      <point x="619.7358490566038" y="-8.30188679245283" type="curve" smooth="yes"/>
      <point x="656.1698113207547" y="-8.30188679245283"/>
      <point x="676.5094339622642" y="-0.3584905660377382"/>
      <point x="692.6037735849056" y="15.132075471698112" type="curve" smooth="yes"/>
      <point x="708.8490566037735" y="30.622641509433958"/>
      <point x="720.9433962264151" y="58.60377358490565"/>
      <point x="720.9433962264151" y="98.22641509433961" type="curve" smooth="yes"/>
      <point x="720.9433962264151" y="122.66037735849056"/>
      <point x="718.0943396226414" y="144.3962264150943"/>
      <point x="712.5471698113207" y="160.188679245283" type="curve"/>
      <point x="706.5471698113208" y="160.188679245283" type="line"/>
      <point x="678.0188679245283" y="140.2452830188679"/>
      <point x="649.433962264151" y="133.3962264150943"/>
      <point x="612.6981132075472" y="133.3962264150943" type="curve" smooth="yes"/>
      <point x="557.566037735849" y="133.3962264150943"/>
      <point x="510.8301886792453" y="157.03773584905656"/>
      <point x="463.1320754716981" y="202.0377358490566" type="curve" smooth="yes"/>
      <point x="402.1132075471698" y="259.35849056603774"/>
      <point x="367.52830188679246" y="319.9433962264151"/>
    </contour>
    <contour>
      <point x="283.0566037735849" y="-9.150943396226415" type="curve" smooth="yes"/>
      <point x="364.3018867924528" y="-9.150943396226415"/>
      <point x="409.35849056603774" y="28.735849056603772"/>
      <point x="432.47169811320754" y="86.07547169811319" type="curve"/>
      <point x="477.1509433962264" y="86.07547169811319" type="line"/>
      <point x="419.77358490566036" y="159.79245283018867" type="line"/>
      <point x="389.9622641509434" y="122.92452830188678"/>
      <point x="363.54716981132077" y="110.1698113207547"/>
      <point x="314.62264150943395" y="110.1698113207547" type="curve" smooth="yes"/>
      <point x="266.33962264150944" y="110.1698113207547"/>
      <point x="239.86792452830187" y="148.58490566037736"/>
      <point x="239.86792452830187" y="197.81132075471697" type="curve" smooth="yes"/>
      <point x="239.86792452830187" y="200.81132075471697" type="line" smooth="yes"/>
      <point x="239.86792452830187" y="255.79245283018867"/>
      <point x="275.33962264150944" y="281.50943396226415"/>
      <point x="313.6792452830189" y="284.377358490566" type="curve"/>
      <point x="249.26415094339623" y="371.8301886792453" type="line"/>
      <point x="247.9056603773585" y="336.1509433962264" type="line"/>
      <point x="174.8490566037736" y="326.8867924528302"/>
      <point x="114.30188679245282" y="272.433962264151"/>
      <point x="114.30188679245282" y="172.3396226415094" type="curve" smooth="yes"/>
      <point x="114.30188679245282" y="167.64150943396226" type="line" smooth="yes"/>
      <point x="114.30188679245282" y="63.0"/>
      <point x="185.03773584905662" y="-9.150943396226415"/>
    </contour>
    <contour>
      <point x="479.1509433962264" y="166.99999999999997" type="line"/>
      <point x="495.2830188679245" y="261.77358490566036"/>
      <point x="535.7358490566038" y="300.45283018867923"/>
      <point x="591.6603773584906" y="300.45283018867923" type="curve" smooth="yes"/>
      <point x="667.9433962264151" y="300.45283018867923"/>
      <point x="733.9245283018869" y="283.9811320754717"/>
      <point x="808.2641509433963" y="246.05660377358492" type="curve"/>
      <point x="747.7547169811321" y="355.24528301886795" type="line"/>
      <point x="731.6981132075472" y="342.2830188679245" type="line"/>
      <point x="681.9433962264151" y="385.8867924528302"/>
      <point x="620.2830188679245" y="415.73584905660374"/>
      <point x="555.7924528301886" y="415.73584905660374" type="curve" smooth="yes"/>
      <point x="551.0377358490566" y="415.73584905660374" type="line" smooth="yes"/>
      <point x="469.7169811320755" y="415.73584905660374"/>
      <point x="436.811320754717" y="331.3207547169811"/>
      <point x="437.6603773584906" y="234.1132075471698" type="curve"/>
      <point x="410.0566037735849" y="234.1132075471698" type="line"/>
    </contour>
    <contour>
      <point x="1412.3962264150944" y="88.62264150943395" type="curve" smooth="yes"/>
      <point x="1477.6792452830189" y="13.150943396226415"/>
      <point x="1529.0188679245282" y="-11.698113207547168"/>
      <point x="1579.6037735849056" y="-11.698113207547168" type="curve" smooth="yes"/>
      <point x="1599.301886792453" y="-11.698113207547168"/>
      <point x="1617.245283018868" y="-4.30188679245283"/>
      <point x="1627.7924528301887" y="5.943396226415094" type="curve" smooth="yes"/>
      <point x="1646.8301886792453" y="24.679245283018865"/>
      <point x="1655.5283018867926" y="47.56603773584905"/>
      <point x="1655.5283018867926" y="83.79245283018867" type="curve" smooth="yes"/>
      <point x="1655.5283018867926" y="108.2264150943396"/>
      <point x="1652.8301886792453" y="130.1132075471698"/>
      <point x="1647.433962264151" y="145.75471698113205" type="curve"/>
      <point x="1641.433962264151" y="145.75471698113205" type="line"/>
      <point x="1629.8867924528302" y="137.69811320754712"/>
      <point x="1614.6415094339623" y="131.69811320754715"/>
      <point x="1586.1509433962265" y="131.69811320754715" type="curve" smooth="yes"/>
      <point x="1547.7169811320755" y="131.69811320754715"/>
      <point x="1500.0377358490566" y="147.69811320754715"/>
      <point x="1459.1320754716983" y="188.45283018867923" type="curve" smooth="yes"/>
      <point x="1407.4528301886794" y="238.98113207547163"/>
      <point x="1356.7358490566037" y="317.39622641509436"/>
      <point x="1333.1132075471698" y="382.71698113207543" type="curve" smooth="yes"/>
      <point x="1314.7924528301887" y="431.49056603773585"/>
      <point x="1303.9811320754718" y="479.811320754717"/>
      <point x="1303.9811320754718" y="508.2830188679245" type="curve" smooth="yes"/>
      <point x="1303.9811320754718" y="529.2264150943396"/>
      <point x="1304.9811320754716" y="541.8867924528303"/>
      <point x="1308.1320754716983" y="553.1886792452831" type="curve"/>
      <point x="1327.2830188679245" y="568.0188679245283"/>
      <point x="1366.8867924528302" y="576.6415094339623"/>
      <point x="1409.867924528302" y="576.6415094339623" type="curve" smooth="yes"/>
      <point x="1465.6792452830189" y="576.6415094339623"/>
      <point x="1512.3773584905662" y="563.7358490566038"/>
      <point x="1551.264150943396" y="538.5849056603774" type="curve"/>
      <point x="1557.264150943396" y="538.5849056603774" type="line"/>
      <point x="1564.3584905660377" y="552.377358490566"/>
      <point x="1568.754716981132" y="574.5094339622642"/>
      <point x="1568.754716981132" y="596.9433962264152" type="curve" smooth="yes"/>
      <point x="1568.754716981132" y="630.2264150943396"/>
      <point x="1560.3584905660377" y="654.566037735849"/>
      <point x="1541.0188679245282" y="673.9056603773585" type="curve" smooth="yes"/>
      <point x="1518.0754716981132" y="696.8490566037735"/>
      <point x="1480.4716981132076" y="710.0"/>
      <point x="1409.5849056603774" y="710.0" type="curve" smooth="yes"/>
      <point x="1276.3962264150941" y="710.0"/>
      <point x="1182.6603773584907" y="611.1886792452831"/>
      <point x="1182.6603773584907" y="529.2641509433963" type="curve" smooth="yes"/>
      <point x="1182.6603773584907" y="523.7169811320755" type="line" smooth="yes"/>
      <point x="1182.6603773584907" y="471.20754716981133"/>
      <point x="1196.4716981132076" y="408.8490566037736"/>
      <point x="1234.3207547169811" y="340.54716981132077" type="curve" smooth="yes"/>
      <point x="1282.3773584905662" y="253.83018867924528"/>
      <point x="1346.490566037736" y="164.8679245283019"/>
    </contour>
    <contour>
      <point x="972.9811320754717" y="166.99999999999997" type="line"/>
      <point x="989.1132075471698" y="261.77358490566036"/>
      <point x="1029.5660377358492" y="300.45283018867923"/>
      <point x="1085.4905660377358" y="300.45283018867923" type="curve" smooth="yes"/>
      <point x="1161.7735849056603" y="300.45283018867923"/>
      <point x="1227.754716981132" y="283.9811320754717"/>
      <point x="1302.0943396226417" y="246.05660377358492" type="curve"/>
      <point x="1241.5849056603774" y="355.24528301886795" type="line"/>
      <point x="1225.5283018867924" y="342.2830188679245" type="line"/>
      <point x="1175.7735849056603" y="385.8867924528302"/>
      <point x="1114.1132075471698" y="415.73584905660374"/>
      <point x="1049.6226415094338" y="415.73584905660374" type="curve" smooth="yes"/>
      <point x="1044.867924528302" y="415.73584905660374" type="line" smooth="yes"/>
      <point x="963.5471698113207" y="415.73584905660374"/>
      <point x="930.6415094339624" y="331.3207547169811"/>
      <point x="931.4905660377358" y="234.1132075471698" type="curve"/>
      <point x="903.8867924528303" y="234.1132075471698" type="line"/>
    </contour>
    <contour>
      <point x="1533.7358490566037" y="419.6037735849057" type="curve" smooth="yes"/>
      <point x="1517.301886792453" y="419.6037735849057"/>
      <point x="1505.1132075471698" y="417.9056603773585"/>
      <point x="1496.3207547169811" y="415.35849056603774" type="curve"/>
      <point x="1496.3207547169811" y="405.20754716981133"/>
      <point x="1496.3207547169811" y="395.811320754717"/>
      <point x="1496.3207547169811" y="383.9622641509434" type="curve" smooth="yes"/>
      <point x="1496.3207547169811" y="309.9433962264151"/>
      <point x="1473.0754716981132" y="259.0754716981132"/>
      <point x="1422.830188679245" y="203.96226415094338" type="curve"/>
      <point x="1476.3584905660377" y="138.1320754716981" type="line"/>
      <point x="1476.3584905660377" y="179.77358490566036" type="line"/>
      <point x="1566.169811320755" y="213.37735849056605"/>
      <point x="1633.377358490566" y="274.7358490566038"/>
      <point x="1633.377358490566" y="339.50943396226415" type="curve" smooth="yes"/>
      <point x="1633.377358490566" y="348.6037735849057" type="line" smooth="yes"/>
      <point x="1633.377358490566" y="394.9245283018868"/>
      <point x="1592.3584905660375" y="419.6037735849057"/>
    </contour>
    <contour>
      <point x="907.5283018867925" y="101.35849056603772" type="curve" smooth="yes"/>
      <point x="991.4905660377358" y="12.301886792452828"/>
      <point x="1046.7924528301887" y="-8.30188679245283"/>
      <point x="1104.9245283018868" y="-8.30188679245283" type="curve" smooth="yes"/>
      <point x="1141.3584905660377" y="-8.30188679245283"/>
      <point x="1160.0" y="0.4905660377358467"/>
      <point x="1176.0943396226417" y="15.981132075471695" type="curve" smooth="yes"/>
      <point x="1192.3396226415093" y="31.471698113207545"/>
      <point x="1206.1320754716983" y="58.60377358490565"/>
      <point x="1206.1320754716983" y="98.22641509433961" type="curve" smooth="yes"/>
      <point x="1206.1320754716983" y="122.66037735849056"/>
      <point x="1203.2830188679245" y="144.3962264150943"/>
      <point x="1197.735849056604" y="160.188679245283" type="curve"/>
      <point x="1191.735849056604" y="160.188679245283" type="line"/>
      <point x="1163.2075471698113" y="140.2452830188679"/>
      <point x="1134.6226415094338" y="133.3962264150943"/>
      <point x="1097.8867924528302" y="133.3962264150943" type="curve" smooth="yes"/>
      <point x="1042.7547169811319" y="133.3962264150943"/>
      <point x="1005.3584905660377" y="149.3962264150943"/>
      <point x="965.3018867924529" y="188.45283018867923" type="curve" smooth="yes"/>
      <point x="912.7735849056604" y="238.9811320754717"/>
      <point x="862.9056603773585" y="317.39622641509436"/>
      <point x="839.2830188679245" y="382.71698113207543" type="curve" smooth="yes"/>
      <point x="820.9622641509434" y="431.49056603773585"/>
      <point x="810.1509433962265" y="479.811320754717"/>
      <point x="810.1509433962265" y="508.2830188679245" type="curve" smooth="yes"/>
      <point x="810.1509433962265" y="529.2264150943396"/>
      <point x="811.1509433962265" y="541.8867924528303"/>
      <point x="814.3018867924528" y="553.1886792452831" type="curve"/>
      <point x="833.4528301886793" y="568.0188679245283"/>
      <point x="873.0566037735848" y="576.6415094339623"/>
      <point x="916.0377358490566" y="576.6415094339623" type="curve" smooth="yes"/>
      <point x="971.8490566037735" y="576.6415094339623"/>
      <point x="1018.5471698113207" y="563.7358490566038"/>
      <point x="1057.433962264151" y="538.5849056603774" type="curve"/>
      <point x="1063.433962264151" y="538.5849056603774" type="line"/>
      <point x="1070.5283018867926" y="552.377358490566"/>
      <point x="1074.9245283018868" y="574.5094339622642"/>
      <point x="1074.9245283018868" y="596.9433962264152" type="curve" smooth="yes"/>
      <point x="1074.9245283018868" y="630.2264150943396"/>
      <point x="1066.5283018867924" y="654.566037735849"/>
      <point x="1047.188679245283" y="673.9056603773585" type="curve" smooth="yes"/>
      <point x="1024.2452830188681" y="696.8490566037735"/>
      <point x="986.6415094339623" y="710.0"/>
      <point x="915.7547169811321" y="710.0" type="curve" smooth="yes"/>
      <point x="782.5660377358491" y="710.0"/>
      <point x="688.8301886792452" y="611.1886792452831"/>
      <point x="688.8301886792452" y="529.2641509433963" type="curve" smooth="yes"/>
      <point x="688.8301886792452" y="523.7169811320755" type="line" smooth="yes"/>
      <point x="688.8301886792452" y="471.20754716981133"/>
      <point x="702.6415094339623" y="408.8490566037736"/>
      <point x="740.4905660377358" y="340.54716981132077" type="curve" smooth="yes"/>
      <point x="788.5471698113208" y="253.83018867924528"/>
      <point x="838.2264150943396" y="175.0566037735849"/>
    </contour>
  </outline>
</glyph>
<glyph name="braceleft.case" format="2">
  <advance width="600.0"/>
  <outline>
    <contour>
      <point x="393.49056603773585" y="225.30188679245285" type="curve" smooth="yes"/>
      <point x="393.49056603773585" y="278.66037735849056"/>
      <point x="368.52830188679246" y="306.20754716981133"/>
      <point x="298.2830188679245" y="320.8679245283019" type="curve"/>
      <point x="298.2830188679245" y="326.8679245283019" type="line"/>
      <point x="367.8301886792452" y="342.622641509434"/>
      <point x="393.49056603773585" y="363.07547169811323"/>
      <point x="393.49056603773585" y="425.2830188679245" type="curve" smooth="yes"/>
      <point x="393.49056603773585" y="475.60377358490564"/>
      <point x="366.75471698113205" y="530.4528301886793"/>
      <point x="351.47169811320754" y="568.8113207547169" type="curve" smooth="yes"/>
      <point x="349.77358490566036" y="573.1132075471698"/>
      <point x="348.2264150943396" y="576.8679245283018"/>
      <point x="347.5283018867924" y="580.1698113207548" type="curve"/>
      <point x="371.77358490566036" y="598.3396226415095"/>
      <point x="407.60377358490564" y="606.7547169811321"/>
      <point x="444.64150943396226" y="606.7547169811321" type="curve" smooth="yes"/>
      <point x="471.0377358490566" y="606.7547169811321"/>
      <point x="491.52830188679246" y="603.9056603773586"/>
      <point x="507.8301886792453" y="598.7547169811321" type="curve"/>
      <point x="513.8301886792453" y="598.7547169811321" type="line"/>
      <point x="517.6792452830189" y="613.245283018868"/>
      <point x="519.5283018867924" y="633.6792452830189"/>
      <point x="519.5283018867924" y="654.566037735849" type="curve" smooth="yes"/>
      <point x="519.5283018867924" y="706.1320754716982"/>
      <point x="487.0" y="750.0"/>
      <point x="448.3018867924528" y="750.0" type="curve"/>
      <point x="444.1509433962264" y="750.0" type="line" smooth="yes"/>
      <point x="322.0" y="750.0"/>
      <point x="231.0" y="699.3962264150942"/>
      <point x="231.0" y="628.0" type="curve" smooth="yes"/>
      <point x="231.0" y="620.6037735849056" type="line" smooth="yes"/>
      <point x="231.0" y="572.1886792452831"/>
      <point x="266.22641509433964" y="512.6037735849056"/>
      <point x="266.22641509433964" y="448.8490566037736" type="curve" smooth="yes"/>
      <point x="266.22641509433964" y="394.0943396226415"/>
      <point x="234.1509433962264" y="384.37735849056605"/>
      <point x="148.47169811320754" y="384.37735849056605" type="curve" smooth="yes"/>
      <point x="115.94339622641509" y="384.37735849056605" type="line"/>
      <point x="109.69811320754717" y="369.33962264150944"/>
      <point x="107.84905660377358" y="353.0"/>
      <point x="107.84905660377358" y="332.71698113207543" type="curve" smooth="yes"/>
      <point x="107.84905660377358" y="278.2075471698113"/>
      <point x="125.58490566037734" y="260.50943396226415"/>
      <point x="166.2075471698113" y="260.50943396226415" type="curve" smooth="yes"/>
      <point x="170.75471698113205" y="260.50943396226415" type="line" smooth="yes"/>
      <point x="237.54716981132074" y="260.50943396226415"/>
      <point x="266.22641509433964" y="243.94339622641513"/>
      <point x="266.22641509433964" y="196.13207547169813" type="curve" smooth="yes"/>
      <point x="266.22641509433964" y="140.50943396226415"/>
      <point x="231.0" y="85.52830188679246"/>
      <point x="231.0" y="37.11320754716981" type="curve" smooth="yes"/>
      <point x="231.0" y="30.86792452830189" type="line" smooth="yes"/>
      <point x="231.0" y="-40.886792452830186"/>
      <point x="294.188679245283" y="-88.98113207547169"/>
      <point x="435.7547169811321" y="-88.98113207547169" type="curve" smooth="yes"/>
      <point x="440.9056603773585" y="-88.98113207547169" type="line" smooth="yes"/>
      <point x="489.0" y="-88.98113207547169"/>
      <point x="516.9811320754717" y="-35.22641509433963"/>
      <point x="516.9811320754717" y="29.07547169811319" type="curve" smooth="yes"/>
      <point x="516.9811320754717" y="42.62264150943395"/>
      <point x="515.9811320754717" y="59.81132075471697"/>
      <point x="513.1320754716982" y="67.50943396226413" type="curve"/>
      <point x="507.1320754716981" y="67.50943396226413" type="line"/>
      <point x="480.24528301886795" y="58.11320754716979"/>
      <point x="458.7547169811321" y="55.26415094339621"/>
      <point x="431.11320754716985" y="55.26415094339621" type="curve" smooth="yes"/>
      <point x="394.9622641509434" y="55.26415094339621"/>
      <point x="369.4339622641509" y="61.528301886792434"/>
      <point x="345.8301886792453" y="75.54716981132074" type="curve"/>
      <point x="347.2264150943396" y="78.15094339622641"/>
      <point x="349.77358490566036" y="82.60377358490565"/>
      <point x="354.0188679245283" y="91.45283018867923" type="curve" smooth="yes"/>
      <point x="374.3962264150943" y="135.75471698113205"/>
      <point x="393.49056603773585" y="170.16981132075472"/>
    </contour>
  </outline>
</glyph>
<glyph name="bracketleft.case" format="2">
  <advance width="500.0"/>
  <outline>
    <contour>
      <point x="453.79245283018867" y="-59.490566037735846" type="line"/>
      <point x="457.188679245283" y="-46.301886792452834"/>
      <point x="458.8867924528302" y="-28.716981132075475"/>
      <point x="458.8867924528302" y="-8.735849056603776" type="curve" smooth="yes"/>
      <point x="458.8867924528302" y="51.377358490566024"/>
      <point x="442.39622641509436" y="75.41509433962263"/>
      <point x="402.7735849056604" y="75.41509433962263" type="curve"/>
      <point x="289.3018867924528" y="75.41509433962263" type="line"/>
      <point x="289.3018867924528" y="292.377358490566"/>
      <point x="289.3018867924528" y="389.6415094339623"/>
      <point x="289.3018867924528" y="606.6037735849056" type="curve"/>
      <point x="451.64150943396226" y="606.6037735849056" type="line"/>
      <point x="456.188679245283" y="619.245283018868"/>
      <point x="458.0377358490566" y="636.2830188679245"/>
      <point x="458.0377358490566" y="655.0188679245283" type="curve" smooth="yes"/>
      <point x="458.0377358490566" y="711.1320754716982"/>
      <point x="440.3018867924528" y="741.5094339622641"/>
      <point x="407.1698113207547" y="741.5094339622641" type="curve"/>
      <point x="194.77358490566036" y="741.5094339622641" type="line" smooth="yes"/>
      <point x="172.0377358490566" y="741.5094339622641"/>
      <point x="154.69811320754715" y="739.6603773584906"/>
      <point x="133.811320754717" y="734.9622641509434" type="curve"/>
      <point x="142.35849056603774" y="699.1132075471697"/>
      <point x="145.90566037735852" y="662.5660377358491"/>
      <point x="145.90566037735852" y="623.0188679245283" type="curve" smooth="yes"/>
      <point x="145.90566037735852" y="407.62264150943395"/>
      <point x="145.90566037735852" y="286.75471698113205"/>
      <point x="145.90566037735852" y="58.62264150943394" type="curve" smooth="yes"/>
      <point x="145.90566037735852" y="5.660377358490557"/>
      <point x="198.9622641509434" y="-59.490566037735846"/>
      <point x="242.1320754716981" y="-59.490566037735846" type="curve" smooth="yes"/>
    </contour>
  </outline>
</glyph>
<glyph name="l.mono" format="2">
  <advance width="350.0"/>
  <anchor x="160.188679245283" y="742.7358490566038" name="top"/>
  <anchor x="215.0943396226415" y="-1.0" name="bottom"/>
  <anchor x="310.7358490566038" y="400.0" name="dot"/>
  <anchor x="310.7358490566038" y="711.0" name="caronslovak"/>
  <anchor x="157.28301886792454" y="376.0188679245283" name="slash"/>
  <outline>
    <contour>
      <point x="35.26415094339623" y="134.90566037735846" type="line"/>
      <point x="31.56603773584906" y="122.96226415094337"/>
      <point x="28.01886792452831" y="102.52830188679243"/>
      <point x="28.01886792452831" y="81.79245283018867" type="curve" smooth="yes"/>
      <point x="28.01886792452831" y="24.037735849056602"/>
      <point x="58.490566037735846" y="0.0"/>
      <point x="102.0188679245283" y="0.0" type="curve" smooth="yes"/>
      <point x="317.6981132075472" y="0.0" type="line"/>
      <point x="322.09433962264154" y="17.283018867924525"/>
      <point x="323.94339622641513" y="37.26415094339622"/>
      <point x="323.94339622641513" y="55.54716981132074" type="curve" smooth="yes"/>
      <point x="323.94339622641513" y="108.2641509433962"/>
      <point x="313.8490566037736" y="134.90566037735846"/>
      <point x="250.75471698113205" y="134.90566037735846" type="curve"/>
    </contour>
    <contour>
      <point x="29.905660377358494" y="750.0" type="curve"/>
      <point x="26.207547169811324" y="735.6603773584906"/>
      <point x="22.66037735849057" y="713.5283018867925"/>
      <point x="22.66037735849057" y="692.9433962264151" type="curve" smooth="yes"/>
      <point x="22.66037735849057" y="626.4905660377359"/>
      <point x="43.39622641509434" y="612.2452830188679"/>
      <point x="64.49056603773585" y="612.2452830188679" type="curve" smooth="yes"/>
      <point x="75.75471698113208" y="612.2452830188679"/>
      <point x="93.73584905660377" y="617.0"/>
      <point x="108.30188679245285" y="625.4528301886793" type="curve"/>
      <point x="113.30188679245285" y="623.0" type="line"/>
      <point x="113.30188679245285" y="494.3207547169811"/>
      <point x="113.30188679245285" y="360.24528301886795"/>
      <point x="113.30188679245285" y="233.2641509433962" type="curve" smooth="yes"/>
      <point x="113.30188679245285" y="182.49056603773585"/>
      <point x="119.69811320754718" y="164.79245283018867"/>
      <point x="133.64150943396228" y="140.60377358490564" type="curve"/>
      <point x="117.15094339622642" y="105.07547169811319" type="line"/>
      <point x="248.2075471698113" y="105.07547169811319" type="line"/>
      <point x="248.2075471698113" y="290.5283018867924"/>
      <point x="248.2075471698113" y="487.01886792452825"/>
      <point x="248.2075471698113" y="672.4716981132076" type="curve" smooth="yes"/>
      <point x="248.2075471698113" y="728.6792452830189"/>
      <point x="215.77358490566036" y="760.0"/>
      <point x="152.35849056603774" y="760.0" type="curve"/>
      <point x="121.63581345673963" y="760.0"/>
      <point x="72.75471698113208" y="757.6981132075472"/>
    </contour>
  </outline>
</glyph>
<glyph name="numbersign_numbersign.code" format="2">
  <advance width="1200.0"/>
  <outline>
    <contour>
      <point x="497.188679245283" y="424.5283018867924" type="line"/>
      <point x="779.377358490566" y="424.5283018867924" type="line"/>
      <point x="779.377358490566" y="542.4528301886793" type="line"/>
      <point x="497.188679245283" y="542.4528301886793" type="line"/>
    </contour>
    <contour>
      <point x="431.7169811320755" y="157.54716981132077" type="line"/>
      <point x="713.9056603773586" y="157.54716981132077" type="line"/>
      <point x="713.9056603773586" y="275.47169811320754" type="line"/>
      <point x="431.7169811320755" y="275.47169811320754" type="line"/>
    </contour>
    <component base="numbersign" xOffset="33.11320754716981"/>
    <component base="numbersign" xOffset="572.8301886792452"/>
  </outline>
</glyph>
<glyph name="numbersign_numbersign_numbersign.code" format="2">
  <advance width="1800.0"/>
  <outline>
    <contour>
      <point x="497.188679245283" y="424.5283018867924" type="line"/>
      <point x="804.8490566037735" y="424.5283018867924" type="line"/>
      <point x="804.8490566037735" y="542.4528301886793" type="line"/>
      <point x="497.188679245283" y="542.4528301886793" type="line"/>
    </contour>
    <contour>
      <point x="431.7169811320755" y="157.54716981132077" type="line"/>
      <point x="739.377358490566" y="157.54716981132077" type="line"/>
      <point x="739.377358490566" y="275.47169811320754" type="line"/>
      <point x="431.7169811320755" y="275.47169811320754" type="line"/>
    </contour>
    <contour>
      <point x="1071.7169811320755" y="424.5283018867924" type="line"/>
      <point x="1379.3773584905662" y="424.5283018867924" type="line"/>
      <point x="1379.3773584905662" y="542.4528301886793" type="line"/>
      <point x="1071.7169811320755" y="542.4528301886793" type="line"/>
    </contour>
    <contour>
      <point x="1006.245283018868" y="157.54716981132077" type="line"/>
      <point x="1313.9056603773586" y="157.54716981132077" type="line"/>
      <point x="1313.9056603773586" y="275.47169811320754" type="line"/>
      <point x="1006.245283018868" y="275.47169811320754" type="line"/>
    </contour>
    <component base="numbersign" xOffset="33.11320754716981"/>
    <component base="numbersign" xOffset="603.3962264150944"/>
    <component base="numbersign" xOffset="1172.8301886792453"/>
  </outline>
</glyph>
<glyph name="parenleft.case" format="2">
  <advance width="400.0"/>
  <outline>
    <contour>
      <point x="209.52830188679246" y="719.0943396226415" type="curve" smooth="yes"/>
      <point x="112.47169811320757" y="627.5094339622641"/>
      <point x="70.13207547169812" y="485.4528301886793"/>
      <point x="70.13207547169812" y="341.47169811320754" type="curve" smooth="yes"/>
      <point x="70.13207547169812" y="333.22641509433964" type="line" smooth="yes"/>
      <point x="70.13207547169812" y="180.75471698113208"/>
      <point x="111.75471698113208" y="49.35849056603773"/>
      <point x="208.32075471698116" y="-43.339622641509436" type="curve" smooth="yes"/>
      <point x="238.90566037735852" y="-73.32075471698113"/>
      <point x="261.24528301886795" y="-78.32075471698113"/>
      <point x="289.22641509433964" y="-78.32075471698113" type="curve" smooth="yes"/>
      <point x="330.15094339622647" y="-78.32075471698113"/>
      <point x="368.47169811320754" y="-63.98113207547169"/>
      <point x="388.66037735849056" y="-45.24528301886792" type="curve"/>
      <point x="388.66037735849056" y="-39.54716981132076" type="line"/>
      <point x="269.188679245283" y="62.20754716981132"/>
      <point x="222.77358490566036" y="193.69811320754715"/>
      <point x="222.77358490566036" y="333.22641509433964" type="curve" smooth="yes"/>
      <point x="222.77358490566036" y="341.47169811320754" type="line" smooth="yes"/>
      <point x="222.77358490566036" y="480.0"/>
      <point x="267.7358490566038" y="612.9433962264152"/>
      <point x="388.66037735849056" y="714.2452830188679" type="curve"/>
      <point x="388.66037735849056" y="719.9433962264152" type="line"/>
      <point x="368.47169811320754" y="738.6792452830189"/>
      <point x="330.1509433962264" y="753.0188679245283"/>
      <point x="289.22641509433964" y="753.0188679245283" type="curve" smooth="yes"/>
      <point x="261.24528301886795" y="753.0188679245283"/>
      <point x="239.20754716981133" y="748.3207547169811"/>
    </contour>
  </outline>
</glyph>
<glyph name="question_question.code" format="2">
  <advance width="1200.0"/>
  <outline>
    <contour>
      <point x="411.13207547169816" y="-2.8867924528301865" type="curve"/>
      <point x="411.13207547169816" y="107.35849056603772" type="line" smooth="yes"/>
      <point x="411.13207547169816" y="165.98113207547166"/>
      <point x="349.07547169811323" y="176.79245283018867"/>
      <point x="289.7358490566038" y="176.79245283018867" type="curve" smooth="yes"/>
      <point x="266.8867924528302" y="176.79245283018867"/>
      <point x="239.00000000000003" y="174.3396226415094"/>
      <point x="215.811320754717" y="169.58490566037733" type="curve"/>
      <point x="215.811320754717" y="59.339622641509436" type="line" smooth="yes"/>
      <point x="215.811320754717" y="0.7169811320754764"/>
      <point x="277.8679245283019" y="-10.094339622641508"/>
      <point x="337.20754716981133" y="-10.094339622641508" type="curve" smooth="yes"/>
      <point x="360.0566037735849" y="-10.094339622641508"/>
      <point x="387.9433962264151" y="-7.641509433962263"/>
    </contour>
    <contour>
      <point x="339.52830188679246" y="720.0" type="curve" smooth="yes"/>
      <point x="254.28301886792454" y="720.0"/>
      <point x="183.69811320754718" y="699.245283018868"/>
      <point x="150.0943396226415" y="665.7924528301886" type="curve" smooth="yes"/>
      <point x="127.43396226415095" y="643.2830188679245"/>
      <point x="115.83018867924528" y="606.8301886792453"/>
      <point x="115.83018867924528" y="567.4905660377358" type="curve" smooth="yes"/>
      <point x="115.83018867924528" y="542.1509433962265"/>
      <point x="119.43396226415095" y="525.5094339622641"/>
      <point x="128.49056603773585" y="507.3207547169812" type="curve"/>
      <point x="134.49056603773587" y="507.3207547169812" type="line"/>
      <point x="191.30188679245282" y="558.9622641509434"/>
      <point x="271.92452830188677" y="585.6981132075473"/>
      <point x="361.1509433962264" y="585.6981132075473" type="curve" smooth="yes"/>
      <point x="395.77358490566036" y="585.6981132075473"/>
      <point x="433.8301886792453" y="581.4905660377358"/>
      <point x="453.54716981132077" y="573.7735849056604" type="curve"/>
      <point x="457.41509433962267" y="565.0566037735848"/>
      <point x="459.52830188679246" y="555.0377358490566"/>
      <point x="459.52830188679246" y="543.5660377358491" type="curve" smooth="yes"/>
      <point x="459.52830188679246" y="509.1320754716981"/>
      <point x="425.7735849056604" y="472.07547169811323"/>
      <point x="363.0188679245283" y="441.2641509433962" type="curve" smooth="yes"/>
      <point x="330.22641509433964" y="425.2641509433962" type="line" smooth="yes"/>
      <point x="266.9622641509434" y="393.54716981132077"/>
      <point x="242.7169811320755" y="357.6981132075472"/>
      <point x="242.7169811320755" y="328.6792452830189" type="curve" smooth="yes"/>
      <point x="242.7169811320755" y="324.5283018867924" type="line" smooth="yes"/>
      <point x="242.7169811320755" y="293.0"/>
      <point x="271.6981132075472" y="249.73584905660377"/>
      <point x="353.7924528301887" y="249.73584905660377" type="curve" smooth="yes"/>
      <point x="366.5849056603774" y="249.73584905660377" type="line"/>
      <point x="366.5849056603774" y="264.8301886792453" type="line" smooth="yes"/>
      <point x="366.5849056603774" y="298.84905660377353"/>
      <point x="379.9811320754717" y="319.6981132075472"/>
      <point x="431.9056603773585" y="348.8679245283019" type="curve" smooth="yes"/>
      <point x="477.28301886792457" y="373.35849056603774" type="line" smooth="yes"/>
      <point x="565.566037735849" y="421.20754716981133"/>
      <point x="594.8301886792453" y="462.66037735849056"/>
      <point x="594.8301886792453" y="528.5283018867925" type="curve" smooth="yes"/>
      <point x="594.8301886792453" y="532.132075471698" type="line" smooth="yes"/>
      <point x="594.8301886792453" y="630.8113207547169"/>
      <point x="515.6415094339623" y="720.0"/>
    </contour>
    <contour>
      <point x="895.0943396226415" y="-2.8867924528301865" type="curve"/>
      <point x="895.0943396226415" y="107.35849056603772" type="line" smooth="yes"/>
      <point x="895.0943396226415" y="165.98113207547166"/>
      <point x="833.0377358490566" y="176.79245283018867"/>
      <point x="773.6981132075472" y="176.79245283018867" type="curve" smooth="yes"/>
      <point x="750.8490566037736" y="176.79245283018867"/>
      <point x="722.9622641509434" y="174.3396226415094"/>
      <point x="699.7735849056604" y="169.58490566037733" type="curve"/>
      <point x="699.7735849056604" y="59.339622641509436" type="line" smooth="yes"/>
      <point x="699.7735849056604" y="0.7169811320754764"/>
      <point x="761.8301886792453" y="-10.094339622641508"/>
      <point x="821.1698113207548" y="-10.094339622641508" type="curve" smooth="yes"/>
      <point x="844.0188679245282" y="-10.094339622641508"/>
      <point x="871.9056603773585" y="-7.641509433962263"/>
    </contour>
    <contour>
      <point x="785.8490566037736" y="720.0" type="curve" smooth="yes"/>
      <point x="690.811320754717" y="720.0"/>
      <point x="628.5094339622641" y="701.2452830188679"/>
      <point x="597.0" y="668.8867924528302" type="curve" smooth="yes"/>
      <point x="584.3018867924529" y="656.188679245283"/>
      <point x="576.4528301886793" y="641.7924528301887"/>
      <point x="575.6981132075472" y="625.3962264150944" type="curve"/>
      <point x="545.4905660377358" y="625.3962264150944" type="line"/>
      <point x="543.5283018867924" y="494.60377358490564" type="line"/>
      <point x="613.0" y="556.5849056603773"/>
      <point x="685.8490566037735" y="585.6981132075473"/>
      <point x="790.9433962264151" y="585.6981132075473" type="curve" smooth="yes"/>
      <point x="848.1132075471698" y="585.6981132075473"/>
      <point x="874.5849056603774" y="581.7358490566038"/>
      <point x="899.4905660377359" y="572.5660377358491" type="curve"/>
      <point x="902.1509433962265" y="564.4528301886792"/>
      <point x="903.9622641509434" y="555.0377358490566"/>
      <point x="903.9622641509434" y="543.5660377358491" type="curve" smooth="yes"/>
      <point x="903.9622641509434" y="509.28301886792457"/>
      <point x="896.6415094339623" y="477.92452830188677"/>
      <point x="836.1886792452831" y="443.811320754717" type="curve" smooth="yes"/>
      <point x="807.3962264150944" y="427.811320754717" type="line" smooth="yes"/>
      <point x="747.3018867924528" y="393.75471698113205"/>
      <point x="726.6792452830189" y="357.6981132075472"/>
      <point x="726.6792452830189" y="328.6792452830189" type="curve" smooth="yes"/>
      <point x="726.6792452830189" y="324.5283018867924" type="line" smooth="yes"/>
      <point x="726.6792452830189" y="293.0"/>
      <point x="755.6603773584906" y="249.73584905660377"/>
      <point x="837.7547169811321" y="249.73584905660377" type="curve" smooth="yes"/>
      <point x="850.5471698113207" y="249.73584905660377" type="line"/>
      <point x="850.5471698113207" y="263.1320754716981" type="line" smooth="yes"/>
      <point x="850.5471698113207" y="294.0943396226415"/>
      <point x="862.0" y="317.09433962264154"/>
      <point x="898.0377358490566" y="338.6792452830189" type="curve" smooth="yes"/>
      <point x="936.0188679245283" y="359.77358490566036" type="line" smooth="yes"/>
      <point x="1019.4528301886793" y="406.83018867924534"/>
      <point x="1047.754716981132" y="462.811320754717"/>
      <point x="1047.754716981132" y="528.5283018867925" type="curve" smooth="yes"/>
      <point x="1047.754716981132" y="532.132075471698" type="line" smooth="yes"/>
      <point x="1047.754716981132" y="633.1132075471697"/>
      <point x="959.0943396226415" y="720.0"/>
    </contour>
  </outline>
</glyph>
<glyph name="r.mono" format="2">
  <advance width="450.0"/>
  <anchor x="242.26415094339626" y="548.8867924528302" name="top"/>
  <anchor x="154.83018867924528" y="-1.0" name="bottom"/>
  <outline>
    <contour>
      <point x="122.77358490566039" y="124.2075471698113" type="line"/>
      <point x="245.188679245283" y="105.0754716981132" type="line"/>
      <point x="245.188679245283" y="189.2452830188679"/>
      <point x="245.188679245283" y="273.4150943396226"/>
      <point x="245.188679245283" y="357.58490566037733" type="curve" smooth="yes"/>
      <point x="245.188679245283" y="488.33962264150944"/>
      <point x="214.71698113207546" y="547.8867924528302"/>
      <point x="110.28301886792453" y="547.8867924528302" type="curve" smooth="yes"/>
      <point x="89.74600870826417" y="547.8867924528302"/>
      <point x="51.83018867924529" y="542.8867924528302"/>
      <point x="31.018867924528305" y="537.8867924528302" type="curve"/>
      <point x="26.47169811320755" y="523.5471698113207"/>
      <point x="22.924528301886795" y="496.3207547169811"/>
      <point x="22.924528301886795" y="468.94339622641513" type="curve"/>
      <point x="22.924528301886795" y="426.7169811320755"/>
      <point x="39.86792452830189" y="400.13207547169816"/>
      <point x="67.05660377358491" y="400.13207547169816" type="curve" smooth="yes"/>
      <point x="79.50943396226415" y="400.13207547169816"/>
      <point x="91.86792452830188" y="405.0377358490566"/>
      <point x="105.28301886792454" y="413.33962264150944" type="curve" smooth="yes"/>
      <point x="110.28301886792454" y="410.8867924528302" type="line"/>
      <point x="110.28301886792454" y="357.5880276910754"/>
      <point x="110.28301886792454" y="303.22641509433964"/>
      <point x="110.28301886792454" y="250.2452830188679" type="curve" smooth="yes"/>
      <point x="110.28301886792454" y="182.49056603773582"/>
      <point x="115.83018867924528" y="164.79245283018867"/>
      <point x="130.62264150943398" y="139.75471698113205" type="curve" smooth="yes"/>
    </contour>
    <contour>
      <point x="238.188679245283" y="366.28301886792457" type="line"/>
      <point x="238.188679245283" y="196.77358490566036" type="line"/>
      <point x="273.8490566037736" y="318.566037735849"/>
      <point x="319.8301886792453" y="385.26415094339626"/>
      <point x="370.9433962264151" y="385.26415094339626" type="curve" smooth="yes"/>
      <point x="389.2452830188679" y="385.26415094339626"/>
      <point x="407.9433962264151" y="378.7169811320755"/>
      <point x="419.24528301886795" y="368.1698113207547" type="curve"/>
      <point x="425.24528301886795" y="368.1698113207547" type="line"/>
      <point x="431.79245283018867" y="392.4528301886793"/>
      <point x="435.49056603773585" y="420.433962264151"/>
      <point x="435.49056603773585" y="441.77358490566036" type="curve"/>
      <point x="435.49056603773585" y="493.92452830188677"/>
      <point x="427.54716981132077" y="527.0943396226414"/>
      <point x="411.50943396226415" y="543.132075471698" type="curve" smooth="yes"/>
      <point x="402.66037735849056" y="551.9811320754717"/>
      <point x="387.90566037735846" y="556.9811320754717"/>
      <point x="370.8490566037736" y="556.9811320754717" type="curve" smooth="yes"/>
      <point x="323.5660377358491" y="556.9811320754717"/>
      <point x="280.60377358490564" y="489.4905660377359"/>
      <point x="250.49056603773585" y="366.28301886792457" type="curve"/>
    </contour>
    <contour>
      <point x="31.01886792452831" y="134.90566037735846" type="line"/>
      <point x="29.01886792452831" y="124.66037735849054"/>
      <point x="28.01886792452831" y="113.56603773584904"/>
      <point x="28.01886792452831" y="103.01886792452828" type="curve" smooth="yes"/>
      <point x="28.01886792452831" y="36.77358490566037"/>
      <point x="41.509433962264154" y="0.0"/>
      <point x="102.86792452830188" y="0.0" type="curve" smooth="yes"/>
      <point x="377.2830188679245" y="0.0" type="line"/>
      <point x="381.6792452830189" y="12.188679245283016"/>
      <point x="383.5283018867924" y="23.679245283018865"/>
      <point x="383.5283018867924" y="37.71698113207546" type="curve" smooth="yes"/>
      <point x="383.5283018867924" y="94.67924528301884"/>
      <point x="342.61347708896034" y="134.90566037735846"/>
      <point x="245.94339622641508" y="134.90566037735846" type="curve"/>
    </contour>
  </outline>
</glyph>
<glyph name="ringcomb.case" format="2">
  <anchor x="0.0" y="700.0" name="_ring"/>
  <anchor x="0.0" y="889.132075471698" name="top"/>
  <outline>
    <contour>
      <point x="3.0" y="899.8301886792452" type="curve" smooth="yes"/>
      <point x="-96.28301886792451" y="899.8301886792452"/>
      <point x="-167.8679245283019" y="841.3962264150942"/>
      <point x="-167.8679245283019" y="755.622641509434" type="curve" smooth="yes"/>
      <point x="-167.8679245283019" y="749.622641509434" type="line" smooth="yes"/>
      <point x="-167.8679245283019" y="670.9433962264151"/>
      <point x="-98.28301886792451" y="619.6037735849058"/>
      <point x="-3.0" y="619.6037735849058" type="curve" smooth="yes"/>
      <point x="96.28301886792453" y="619.6037735849058"/>
      <point x="167.8679245283019" y="674.6415094339623"/>
      <point x="167.8679245283019" y="754.4716981132076" type="curve" smooth="yes"/>
      <point x="167.8679245283019" y="760.4716981132076" type="line" smooth="yes"/>
      <point x="167.8679245283019" y="845.0943396226415"/>
      <point x="98.28301886792453" y="899.8301886792452"/>
    </contour>
    <contour>
      <point x="5.849056603773585" y="816.9245283018869" type="curve" smooth="yes"/>
      <point x="17.509433962264154" y="816.9245283018869"/>
      <point x="28.415094339622645" y="815.7735849056604"/>
      <point x="38.62264150943396" y="814.1698113207547" type="curve"/>
      <point x="56.22641509433962" y="802.0188679245283"/>
      <point x="65.52830188679246" y="784.0188679245283"/>
      <point x="65.52830188679246" y="760.3207547169811" type="curve" smooth="yes"/>
      <point x="65.52830188679246" y="754.3207547169811" type="line" smooth="yes"/>
      <point x="65.52830188679246" y="721.2641509433962"/>
      <point x="41.16981132075472" y="702.5094339622642"/>
      <point x="-5.849056603773585" y="702.5094339622642" type="curve" smooth="yes"/>
      <point x="-18.358490566037737" y="702.5094339622642"/>
      <point x="-30.113207547169814" y="703.6603773584907"/>
      <point x="-42.01886792452831" y="706.1132075471698" type="curve"/>
      <point x="-57.07547169811321" y="715.7169811320755"/>
      <point x="-65.52830188679246" y="731.1698113207548"/>
      <point x="-65.52830188679246" y="749.7735849056603" type="curve" smooth="yes"/>
      <point x="-65.52830188679246" y="755.7735849056604" type="line" smooth="yes"/>
      <point x="-65.52830188679246" y="793.9245283018868"/>
      <point x="-40.716981132075475" y="816.9245283018869"/>
    </contour>
  </outline>
</glyph>
<glyph name="s.italic" format="2">
  <advance width="550.0"/>
  <anchor x="289.5660377358491" y="548.8867924528302" name="top"/>
  <anchor x="269.1509433962264" y="-1.0" name="bottom"/>
  <anchor x="342.4339622641509" y="548.8867924528303" name="dot"/>
  <outline>
    <contour>
      <point x="306.9245283018868" y="550.0377358490566" type="curve" smooth="yes"/>
      <point x="182.53773584905662" y="550.0377358490566"/>
      <point x="58.584905660377366" y="484.47169811320754"/>
      <point x="58.584905660377366" y="359.60377358490564" type="curve" smooth="yes"/>
      <point x="58.584905660377366" y="284.47169811320754"/>
      <point x="104.22641509433963" y="253.11320754716982"/>
      <point x="216.16981132075472" y="227.56603773584905" type="curve" smooth="yes"/>
      <point x="314.45283018867923" y="205.32075471698113" type="line" smooth="yes"/>
      <point x="344.60377358490564" y="198.6603773584906"/>
      <point x="352.7169811320755" y="176.69811320754718"/>
      <point x="347.77358490566036" y="144.47169811320754" type="curve" smooth="yes"/>
      <point x="330.8724271382359" y="133.1249317910094"/>
      <point x="306.43878894248115" y="123.2075471698113"/>
      <point x="271.2075471698113" y="123.2075471698113" type="curve" smooth="yes"/>
      <point x="193.89967786468867" y="123.2075471698113"/>
      <point x="152.67112155774527" y="141.360437277"/>
      <point x="97.41509433962264" y="175.56603773584902" type="curve"/>
      <point x="91.71698113207547" y="175.56603773584902" type="line"/>
      <point x="89.01886792452831" y="162.377358490566"/>
      <point x="87.16981132075472" y="148.0377358490566"/>
      <point x="87.16981132075472" y="127.30188679245282" type="curve" smooth="yes"/>
      <point x="87.16981132075472" y="72.39622641509433"/>
      <point x="97.50943396226415" y="47.301886792452834"/>
      <point x="118.0" y="26.81132075471698" type="curve" smooth="yes"/>
      <point x="135.4482739171321" y="9.363046837584907"/>
      <point x="180.47169811320754" y="-11.69811320754717"/>
      <point x="260.26415094339626" y="-11.69811320754717" type="curve" smooth="yes"/>
      <point x="402.8301886792453" y="-11.69811320754717"/>
      <point x="474.92452830188677" y="50.641509433962256"/>
      <point x="474.92452830188677" y="156.43396226415095" type="curve" smooth="yes"/>
      <point x="474.92452830188677" y="229.56603773584902"/>
      <point x="435.9811320754717" y="268.377358490566"/>
      <point x="366.41509433962267" y="282.8301886792453" type="curve" smooth="yes"/>
      <point x="285.2641509433962" y="299.8301886792453" type="line" smooth="yes"/>
      <point x="211.52830188679243" y="315.03773584905656"/>
      <point x="194.43396226415092" y="329.50943396226415"/>
      <point x="194.43396226415092" y="350.8679245283019" type="curve" smooth="yes"/>
      <point x="194.43396226415092" y="388.0"/>
      <point x="233.37682699976418" y="415.13207547169816"/>
      <point x="300.9245283018868" y="415.13207547169816" type="curve" smooth="yes"/>
      <point x="334.5849056603774" y="415.13207547169816"/>
      <point x="358.64150943396226" y="410.77358490566036"/>
      <point x="377.39622641509436" y="402.811320754717" type="curve"/>
      <point x="377.0" y="386.5471698113207"/>
      <point x="375.0" y="369.28301886792457"/>
      <point x="368.6981132075472" y="349.3207547169811" type="curve"/>
      <point x="368.6981132075472" y="343.3207547169811" type="line"/>
      <point x="374.39622641509436" y="341.3207547169811"/>
      <point x="380.39622641509436" y="340.3207547169811"/>
      <point x="386.24528301886795" y="340.3207547169811" type="curve" smooth="yes"/>
      <point x="462.0377358490566" y="340.3207547169811"/>
      <point x="496.9622641509434" y="374.0566037735849"/>
      <point x="496.9622641509434" y="427.1509433962264" type="curve" smooth="yes"/>
      <point x="496.9622641509434" y="437.60377358490564" type="line"/>
      <point x="496.9622641509434" y="459.29928432010564"/>
      <point x="488.1132075471698" y="483.0"/>
      <point x="467.4150943396226" y="502.8490566037736" type="curve" smooth="yes"/>
      <point x="433.52830188679246" y="535.0377358490565"/>
      <point x="383.92041166380375" y="550.0377358490566"/>
    </contour>
  </outline>
</glyph>
<glyph name="x.italic" format="2">
  <advance width="600.0"/>
  <outline>
    <contour>
      <point x="33.81132075471698" y="518.7924528301886" type="curve"/>
      <point x="28.415094339622645" y="495.96226415094344"/>
      <point x="26.566037735849058" y="472.1320754716981"/>
      <point x="26.566037735849058" y="447.3018867924529" type="curve" smooth="yes"/>
      <point x="26.566037735849058" y="397.433962264151"/>
      <point x="35.56603773584906" y="371.15094339622647"/>
      <point x="69.09433962264151" y="371.15094339622647" type="curve" smooth="yes"/>
      <point x="89.49056603773585" y="371.15094339622647"/>
      <point x="117.52830188679245" y="384.11320754716985"/>
      <point x="147.64150943396226" y="415.7924528301887" type="curve"/>
      <point x="153.49056603773585" y="415.4905660377359" type="line"/>
      <point x="214.69811320754718" y="286.6037735849057"/>
      <point x="284.90566037735846" y="164.35849056603774"/>
      <point x="336.8301886792453" y="72.71698113207546" type="curve" smooth="yes"/>
      <point x="366.0188679245283" y="20.886792452830186"/>
      <point x="406.20754716981133" y="-10.0"/>
      <point x="458.62264150943395" y="-10.0" type="curve" smooth="yes"/>
      <point x="510.8867924528302" y="-10.0"/>
      <point x="535.0943396226414" y="5.490566037735848"/>
      <point x="551.7924528301887" y="23.886792452830186" type="curve" smooth="yes"/>
      <point x="569.433962264151" y="43.226415094339615"/>
      <point x="575.9811320754718" y="68.66037735849056"/>
      <point x="575.9811320754718" y="119.1698113207547" type="curve" smooth="yes"/>
      <point x="575.9811320754718" y="143.1509433962264"/>
      <point x="572.433962264151" y="158.79245283018867"/>
      <point x="569.5849056603774" y="172.43396226415092" type="curve"/>
      <point x="563.5849056603774" y="172.43396226415092" type="line"/>
      <point x="536.2452830188679" y="139.09433962264148"/>
      <point x="513.7924528301887" y="120.30188679245282"/>
      <point x="481.8867924528302" y="113.2075471698113" type="curve" smooth="yes"/>
      <point x="459.8490566037736" y="125.41509433962263"/>
      <point x="441.60377358490564" y="147.56603773584902"/>
      <point x="423.2075471698113" y="186.3018867924528" type="curve" smooth="yes"/>
      <point x="378.33962264150944" y="279.2641509433962"/>
      <point x="322.60377358490564" y="401.2452830188679"/>
      <point x="283.35849056603774" y="473.8679245283019" type="curve" smooth="yes"/>
      <point x="254.32075471698113" y="528.6415094339623"/>
      <point x="216.3396226415094" y="547.8867924528302"/>
      <point x="148.9433962264151" y="547.8867924528302" type="curve" smooth="yes"/>
      <point x="103.41509433962264" y="547.8867924528302"/>
      <point x="69.11320754716982" y="537.7924528301886"/>
    </contour>
    <contour>
      <point x="305.33962264150944" y="346.90566037735846" type="line"/>
      <point x="349.7735849056604" y="252.66037735849056" type="line"/>
      <point x="422.66037735849056" y="323.33962264150944"/>
      <point x="508.35849056603774" y="385.1698113207548"/>
      <point x="574.0566037735849" y="416.45283018867923" type="curve"/>
      <point x="579.5471698113207" y="468.9622641509434"/>
      <point x="588.7735849056603" y="545.3396226415094"/>
      <point x="517.5849056603773" y="545.3396226415094" type="curve" smooth="yes"/>
      <point x="484.8490566037736" y="545.3396226415094"/>
      <point x="460.66037735849056" y="531.2452830188679"/>
      <point x="441.1132075471698" y="507.8490566037736" type="curve" smooth="yes"/>
      <point x="410.24528301886795" y="472.6792452830189"/>
      <point x="376.1698113207547" y="405.75471698113205"/>
      <point x="353.90566037735846" y="346.90566037735846" type="curve"/>
    </contour>
    <contour>
      <point x="252.28301886792454" y="288.7358490566038" type="line"/>
      <point x="162.0943396226415" y="220.13207547169813"/>
      <point x="77.05660377358492" y="136.96226415094338"/>
      <point x="34.358490566037744" y="52.641509433962256" type="curve"/>
      <point x="59.49056603773585" y="11.679245283018865"/>
      <point x="104.66037735849055" y="-10.0"/>
      <point x="149.0754716981132" y="-10.0" type="curve" smooth="yes"/>
      <point x="182.0" y="-10.0"/>
      <point x="196.94339622641508" y="-2.452830188679246"/>
      <point x="209.43396226415092" y="26.52830188679245" type="curve" smooth="yes"/>
      <point x="226.84905660377356" y="68.47169811320755"/>
      <point x="243.58490566037736" y="119.30188679245285"/>
      <point x="256.88679245283015" y="201.49056603773587" type="curve"/>
      <point x="293.811320754717" y="201.49056603773587" type="line"/>
    </contour>
  </outline>
</glyph>
<glyph name="zero.dotted" format="2">
  <advance width="600.0"/>
  <outline>
    <contour>
      <point x="347.54716981132077" y="407.6792452830189" type="line"/>
      <point x="335.6981132075472" y="417.07547169811323"/>
      <point x="318.6981132075472" y="423.77358490566036"/>
      <point x="302.84905660377353" y="423.77358490566036" type="curve" smooth="yes"/>
      <point x="274.0" y="423.77358490566036"/>
      <point x="254.1509433962264" y="406.6792452830189"/>
      <point x="254.1509433962264" y="355.54716981132077" type="curve" smooth="yes"/>
      <point x="254.1509433962264" y="287.3207547169811" type="line"/>
      <point x="266.0" y="276.92452830188677"/>
      <point x="279.0" y="271.22641509433964"/>
      <point x="293.8490566037736" y="271.22641509433964" type="curve" smooth="yes"/>
      <point x="324.6981132075472" y="271.22641509433964"/>
      <point x="347.54716981132077" y="292.0188679245283"/>
      <point x="347.54716981132077" y="326.20754716981133" type="curve" smooth="yes"/>
    </contour>
    <component base="zero"/>
  </outline>
</glyph>
<glyph name="zerosuperior.dotted" format="2">
  <advance width="600.0"/>
  <outline>
    <contour>
      <point x="301.8490566037736" y="738.6792452830189" type="curve" smooth="yes"/>
      <point x="208.9622641509434" y="738.6792452830189"/>
      <point x="157.8679245283019" y="659.433962264151"/>
      <point x="157.8679245283019" y="563.2830188679245" type="curve" smooth="yes"/>
      <point x="157.8679245283019" y="525.5094339622642" type="line" smooth="yes"/>
      <point x="157.8679245283019" y="438.1509433962264"/>
      <point x="210.1509433962264" y="367.9622641509434"/>
      <point x="300.8490566037736" y="367.9622641509434" type="curve" smooth="yes"/>
      <point x="389.73584905660374" y="367.9622641509434"/>
      <point x="442.1320754716981" y="440.50943396226415"/>
      <point x="442.1320754716981" y="521.9622641509434" type="curve" smooth="yes"/>
      <point x="442.1320754716981" y="558.8867924528302" type="line" smooth="yes"/>
      <point x="442.1320754716981" y="662.2452830188679"/>
      <point x="395.79245283018867" y="738.6792452830189"/>
    </contour>
    <contour>
      <point x="309.24528301886795" y="657.8679245283018" type="curve" smooth="yes"/>
      <point x="321.90566037735846" y="657.8679245283018"/>
      <point x="334.20754716981133" y="655.7169811320755"/>
      <point x="343.1132075471698" y="652.1132075471698" type="curve" smooth="yes"/>
      <point x="355.1132075471698" y="637.1132075471697"/>
      <point x="361.86792452830184" y="606.2452830188679"/>
      <point x="361.86792452830184" y="568.8301886792453" type="curve" smooth="yes"/>
      <point x="361.86792452830184" y="539.7547169811321" type="line" smooth="yes"/>
      <point x="361.86792452830184" y="474.5849056603774"/>
      <point x="327.9622641509434" y="449.62264150943395"/>
      <point x="291.35849056603774" y="449.62264150943395" type="curve" smooth="yes"/>
      <point x="281.09433962264154" y="449.62264150943395"/>
      <point x="273.1320754716981" y="450.2264150943396"/>
      <point x="262.77358490566036" y="453.4339622641509" type="curve" smooth="yes"/>
      <point x="248.22641509433961" y="467.64150943396226"/>
      <point x="239.83018867924528" y="493.30188679245276"/>
      <point x="239.83018867924528" y="522.1698113207548" type="curve" smooth="yes"/>
      <point x="239.83018867924528" y="558.1886792452831" type="line" smooth="yes"/>
      <point x="239.83018867924528" y="624.5660377358491"/>
      <point x="270.79245283018867" y="657.8679245283018"/>
    </contour>
    <contour>
      <point x="333.3018867924528" y="585.9433962264151" type="line"/>
      <point x="324.8490566037736" y="590.7924528301886"/>
      <point x="314.0" y="594.4905660377358"/>
      <point x="302.8490566037736" y="594.4905660377358" type="curve" smooth="yes"/>
      <point x="277.3962264150943" y="594.4905660377358"/>
      <point x="267.54716981132077" y="577.3962264150942"/>
      <point x="267.54716981132077" y="551.7358490566037" type="curve" smooth="yes"/>
      <point x="267.54716981132077" y="521.9433962264151" type="line"/>
      <point x="276.24528301886795" y="518.0943396226414"/>
      <point x="282.54716981132077" y="516.0943396226414"/>
      <point x="293.8490566037736" y="516.0943396226414" type="curve" smooth="yes"/>
      <point x="319.60377358490564" y="516.0943396226414"/>
      <point x="333.3018867924528" y="525.9433962264151"/>
      <point x="333.3018867924528" y="560.8867924528302" type="curve" smooth="yes"/>
    </contour>
  </outline>
</glyph>
